<svg width="98" height="31" viewBox="0 0 98 31" fill="none" xmlns="http://www.w3.org/2000/svg">
<g clip-path="url(#clip0_2103_9164)">
<mask id="mask0_2103_9164" style="mask-type:luminance" maskUnits="userSpaceOnUse" x="0" y="0" width="97" height="30">
<path d="M96.8762 0.200195H0.538086V29.2056H96.8762V0.200195Z" fill="white"/>
</mask>
<g mask="url(#mask0_2103_9164)">
<g opacity="0.4">
<path fill-rule="evenodd" clip-rule="evenodd" d="M60.308 22.8845C54.7315 27.0072 46.6211 29.2041 39.6253 29.2041C30.2938 29.2505 21.2802 25.8161 14.3457 19.5718C13.8392 19.0987 14.2776 18.456 14.9226 18.8287C21.6379 22.6933 29.1565 24.9513 36.8898 25.4261C44.6232 25.9009 52.3615 24.5796 59.4992 21.5656C60.443 21.1953 61.2207 22.213 60.308 22.8845Z" fill="white"/>
<path fill-rule="evenodd" clip-rule="evenodd" d="M62.6389 20.2147C61.9293 19.302 57.9081 19.7751 56.1162 20.0117C55.575 20.0797 55.4735 19.6065 55.9812 19.2685C59.1923 17.0046 64.4296 17.6797 65.0389 18.424C65.6481 19.1682 64.8704 24.4401 61.8623 26.9405C61.3893 27.312 60.9495 27.1089 61.1526 26.6023C61.8276 24.9131 63.3485 21.1609 62.6389 20.2147Z" fill="white"/>
<path fill-rule="evenodd" clip-rule="evenodd" d="M56.218 3.38468V1.19237C56.2141 1.1203 56.2255 1.04824 56.2513 0.980851C56.2772 0.913463 56.3169 0.852265 56.368 0.801232C56.419 0.750197 56.4801 0.71045 56.5475 0.684608C56.6149 0.658764 56.687 0.647402 56.7591 0.651226H66.5564C66.7044 0.647475 66.8479 0.702133 66.9559 0.803415C67.0639 0.904695 67.1276 1.04444 67.1334 1.19237V3.0512C67.1334 3.35582 66.8634 3.76084 66.3903 4.43584L61.3213 11.6682C63.2531 11.5641 65.178 11.9708 66.9026 12.8473C67.0522 12.933 67.1774 13.0557 67.266 13.2035C67.3548 13.3515 67.404 13.5196 67.409 13.692V16.0239C67.409 16.362 67.071 16.7335 66.6995 16.5304C65.1004 15.7028 63.325 15.2735 61.5244 15.2794C59.7238 15.2852 57.9513 15.7258 56.3575 16.5639C56.2768 16.5927 56.1904 16.6017 56.1056 16.59C56.0208 16.5781 55.94 16.546 55.8703 16.4962C55.8005 16.4464 55.744 16.3805 55.7052 16.3042C55.6664 16.2277 55.6468 16.1431 55.648 16.0573V13.8235C55.6147 13.3013 55.7445 12.7815 56.0194 12.3362L61.9041 3.9212H56.8005C56.6526 3.92495 56.5091 3.8703 56.4011 3.76902C56.2931 3.66774 56.2294 3.528 56.2236 3.38006L56.218 3.38468ZM20.496 17H17.518C17.3846 16.9868 17.2594 16.9299 17.1617 16.8384C17.0638 16.7468 16.9989 16.6256 16.9768 16.4935V1.22237C16.9825 1.07444 17.0463 0.934696 17.1542 0.833416C17.2622 0.732135 17.4057 0.677476 17.5537 0.681227H20.323C20.46 0.683092 20.5915 0.736029 20.6915 0.829719C20.7917 0.923408 20.8532 1.0511 20.8641 1.18776V3.1816H20.9322C21.1953 2.3574 21.7136 1.63817 22.4122 1.12783C23.1109 0.617487 23.9537 0.342446 24.8189 0.342446C25.6841 0.342446 26.5269 0.617487 27.2255 1.12783C27.9242 1.63817 28.4425 2.3574 28.7057 3.1816C29.0021 2.33186 29.5616 1.59865 30.3028 1.08828C31.0442 0.577916 31.9287 0.31693 32.8282 0.343151C33.4961 0.329678 34.1575 0.476055 34.7572 0.770103C35.3569 1.06415 35.8777 1.49734 36.276 2.03354C37.2222 3.31777 37.0191 5.1766 37.0191 6.83237V16.4981C37.0134 16.646 36.9497 16.7858 36.8417 16.8871C36.7337 16.9884 36.5901 17.0431 36.4422 17.0393H33.5021C33.3614 17.0308 33.2286 16.9711 33.1289 16.8714C33.0292 16.7717 32.9695 16.6389 32.961 16.4981V8.38774C33.0063 7.42965 32.9835 6.46956 32.8929 5.51468C32.8309 5.1082 32.6118 4.74231 32.2827 4.49584C31.9535 4.24938 31.5408 4.14207 31.1334 4.197C30.7453 4.20819 30.3692 4.33253 30.051 4.55475C29.7328 4.77698 29.4866 5.08737 29.3426 5.44774C29.0976 6.40731 29.0065 7.39964 29.0726 8.38774V16.4981C29.0668 16.646 29.0031 16.7858 28.8951 16.8871C28.7871 16.9884 28.6436 17.0431 28.4957 17.0393H25.5221C25.3814 17.0308 25.2486 16.9711 25.1489 16.8714C25.0492 16.7717 24.9895 16.6389 24.981 16.4981V8.38774C24.981 6.69736 25.251 4.16354 23.1557 4.16354C21.0268 4.16354 21.0937 6.59697 21.0937 8.38774V16.4981C21.0725 16.6426 20.9987 16.7742 20.8865 16.8677C20.7742 16.9612 20.6315 17.01 20.4857 17.0047L20.496 17ZM75.5829 0.338538C80.0102 0.338538 82.4103 4.12315 82.4103 8.95661C82.4103 13.6204 79.7737 17.3381 75.5829 17.3381C71.2571 17.3381 68.8907 13.5535 68.8907 8.8216C68.8572 4.05622 71.2559 0.338538 75.5829 0.338538ZM75.5829 3.48161C73.3905 3.48161 73.251 6.48968 73.251 8.34852C73.251 10.2074 73.2176 14.195 75.5495 14.195C77.848 14.195 77.983 10.9839 77.983 9.02468C78.0244 7.65894 77.8765 6.29404 77.5434 4.96892C77.4509 4.52636 77.2012 4.13223 76.8407 3.85962C76.48 3.587 76.0327 3.45436 75.5818 3.48623L75.5829 3.48161ZM88.1207 17H85.1472C85.0064 16.9916 84.8736 16.9318 84.7739 16.8322C84.6742 16.7325 84.6145 16.5997 84.606 16.4589V1.15431C84.6247 1.0144 84.6934 0.885978 84.7996 0.792851C84.9056 0.699724 85.0417 0.64817 85.183 0.64774H87.9522C88.078 0.651945 88.1989 0.697211 88.2966 0.776583C88.3944 0.855954 88.4635 0.965088 88.4934 1.08737V3.41928H88.5613C89.406 1.3239 90.5552 0.344277 92.6171 0.344277C93.3032 0.313107 93.9854 0.462008 94.5962 0.77616C95.2069 1.09031 95.7247 1.55879 96.0982 2.13505C96.876 3.35236 96.876 5.41313 96.876 6.90044V16.5327C96.8556 16.6691 96.7852 16.7929 96.6786 16.8804C96.572 16.9678 96.4368 17.0125 96.2991 17.0058H93.3255C93.1972 16.9937 93.0759 16.9415 92.9787 16.8566C92.8817 16.7717 92.8137 16.6584 92.7845 16.5327V8.21929C92.7845 6.53006 92.9876 4.0966 90.9257 4.0966C90.5523 4.11402 90.1917 4.23774 89.8863 4.4532C89.5808 4.66865 89.3434 4.96686 89.2018 5.31274C88.8402 6.23722 88.679 7.22789 88.7287 8.21929V16.4658C88.7099 16.6143 88.638 16.751 88.5262 16.8506C88.4144 16.9501 88.2703 17.0057 88.1207 17.007V17ZM48.411 9.69967C48.5215 10.788 48.3344 11.8858 47.8699 12.8762C47.6814 13.2676 47.3899 13.6003 47.0265 13.8385C46.6633 14.0768 46.242 14.2117 45.808 14.2285C44.6541 14.2285 43.9826 13.3493 43.9826 12.065C43.9826 9.52661 46.2464 9.057 48.4099 9.057L48.411 9.69967ZM51.419 16.9689C51.3228 17.053 51.2025 17.1048 51.0752 17.117C50.9479 17.1293 50.82 17.1012 50.7095 17.037C50.0211 16.4799 49.4374 15.8048 48.9857 15.0431C48.3964 15.7636 47.6456 16.335 46.794 16.7108C45.9426 17.0867 45.0146 17.2565 44.0853 17.2066C43.4754 17.2423 42.8651 17.1458 42.2961 16.9233C41.7272 16.7008 41.2131 16.3578 40.7893 15.9178C40.3655 15.478 40.042 14.9515 39.8409 14.3747C39.6397 13.7978 39.5659 13.1843 39.6244 12.5762C39.5894 11.5368 39.8756 10.5119 40.444 9.64104C41.0125 8.77015 41.8354 8.09562 42.801 7.70931C44.6149 7.10767 46.5021 6.75519 48.411 6.66159V6.29006C48.512 5.54787 48.3823 4.79257 48.0394 4.1266C47.8452 3.87467 47.5937 3.67268 47.3057 3.53742C47.0177 3.40217 46.7016 3.33754 46.3836 3.3489C45.8336 3.3009 45.285 3.45687 44.8425 3.78708C44.3999 4.1173 44.0943 4.59869 43.9836 5.13967C43.9156 5.40967 43.753 5.68082 43.4772 5.68082L40.604 5.37623C40.5347 5.36648 40.468 5.34281 40.408 5.30665C40.348 5.27049 40.2958 5.22258 40.2547 5.1658C40.2138 5.10901 40.1846 5.04451 40.169 4.97618C40.1535 4.90785 40.1519 4.83709 40.1644 4.76814C40.8405 1.25353 43.9837 0.205822 46.8222 0.205822C48.4534 0.136069 50.0538 0.665036 51.3221 1.69313C52.7748 3.04544 52.6399 4.86967 52.6399 6.83005V11.4604C52.6588 12.4893 53.056 13.4752 53.7557 14.2297C53.9587 14.4997 53.9922 14.8377 53.7557 15.0073C53.1084 15.5173 52.0248 16.4635 51.419 16.9689ZM9.37754 9.69967C9.488 10.788 9.30096 11.8858 8.83637 12.8762C8.64789 13.2676 8.35637 13.6003 7.99311 13.8385C7.62984 14.0768 7.20856 14.2117 6.77446 14.2285C5.62062 14.2285 4.94908 13.3493 4.94908 12.065C4.94908 9.52661 7.21291 9.057 9.37637 9.057L9.37754 9.69967ZM12.3522 16.9689C12.2559 17.053 12.1356 17.1048 12.0083 17.117C11.881 17.1293 11.7531 17.1012 11.6425 17.037C10.9542 16.4799 10.3705 15.8048 9.91868 15.0431C9.32942 15.7636 8.5786 16.335 7.72718 16.7108C6.87575 17.0867 5.94769 17.2565 5.01831 17.2066C4.40848 17.2423 3.79813 17.1458 3.22919 16.9233C2.66025 16.7008 2.14621 16.3578 1.72239 15.9178C1.29857 15.478 0.975 14.9515 0.773924 14.3747C0.572849 13.7978 0.499037 13.1843 0.557543 12.5762C0.522507 11.5368 0.80867 10.5119 1.37708 9.64104C1.94549 8.77015 2.76852 8.09562 3.73407 7.70931C5.54801 7.10767 7.43526 6.75519 9.34407 6.66159V6.29006C9.4451 5.54787 9.31539 4.79257 8.97254 4.1266C8.77827 3.87467 8.52669 3.67268 8.23873 3.53742C7.95076 3.40217 7.6347 3.33754 7.31676 3.3489C6.76667 3.3009 6.21816 3.45687 5.77561 3.78708C5.33306 4.1173 5.02738 4.59869 4.91677 5.13967C4.84869 5.40967 4.68022 5.68082 4.41022 5.68082L1.53716 5.37623C1.46777 5.36648 1.40106 5.34281 1.34104 5.30665C1.28102 5.27049 1.22892 5.22258 1.18787 5.1658C1.14681 5.10901 1.11765 5.04451 1.10212 4.97618C1.0866 4.90785 1.08504 4.83709 1.09753 4.76814C1.77368 1.25353 4.91676 0.205822 7.75522 0.205822C9.38644 0.136069 10.9869 0.665036 12.2553 1.69313C13.708 3.04544 13.573 4.86967 13.573 6.83005V11.4604C13.592 12.4892 13.9892 13.475 14.6887 14.2297C14.8918 14.4997 14.9253 14.8377 14.6887 15.0073C14.046 15.5139 12.9649 16.46 12.3568 16.9689H12.3522Z" fill="white"/>
</g>
</g>
</g>
<defs>
<clipPath id="clip0_2103_9164">
<rect width="96.9231" height="30" fill="white" transform="translate(0.538086 0.200195)"/>
</clipPath>
</defs>
</svg>
