<svg width="100" height="25" viewBox="0 0 100 25" fill="none" xmlns="http://www.w3.org/2000/svg">
<g clip-path="url(#clip0_2103_9175)">
<mask id="mask0_2103_9175" style="mask-type:luminance" maskUnits="userSpaceOnUse" x="0" y="0" width="100" height="24">
<path d="M99.2 0.151855H0V23.8121H99.2V0.151855Z" fill="white"/>
</mask>
<g mask="url(#mask0_2103_9175)">
<g opacity="0.4">
<path d="M23.2988 22.2386H17.7964L16.1096 18.1796H6.94458L5.41084 22.2386H0L8.26626 1.73619H14.1892L23.2988 22.2386ZM11.3036 6.63499L8.29157 14.6013H14.6048L11.3036 6.63499ZM43.2831 1.73619H47.7325V22.2386H42.6217V9.42896L37.0904 15.8615H36.3084L30.7771 9.42896V22.2386H25.6626V1.73619H30.1205L36.6988 9.34222L43.2831 1.73619ZM60.6831 1.73619C68.1687 1.73619 72.0157 6.39523 72.0157 12.0169C72.0157 17.9085 68.2879 22.2386 60.112 22.2386H51.6337V1.73619H60.6831ZM56.747 18.4808H60.0831C65.2241 18.4808 66.7566 14.9868 66.7566 11.9856C66.7566 8.46752 64.8626 5.49282 60.0229 5.49282H56.747V18.4808ZM82.1831 6.59764L75.7385 0.151855H99.2V23.6145L92.7554 17.1699V6.59764H82.1831ZM82.1759 7.8892L75.5422 14.5241V23.8121H84.8289L91.4639 17.1772H82.1759V7.8892Z" fill="white"/>
</g>
</g>
</g>
<defs>
<clipPath id="clip0_2103_9175">
<rect width="100" height="24.0964" fill="white" transform="translate(0 0.151855)"/>
</clipPath>
</defs>
</svg>
