<svg width="54" height="31" viewBox="0 0 54 31" fill="none" xmlns="http://www.w3.org/2000/svg">
<g opacity="0.4">
<path d="M17.6424 26.9434H15.4932V18.4263H17.6424V26.9434Z" fill="white"/>
<path d="M34.9729 20.8674C34.4181 20.5664 33.7964 20.4095 33.1651 20.4116C32.8584 20.3947 32.5516 20.4414 32.2637 20.5487C31.9759 20.6558 31.7132 20.8212 31.4923 21.0345C31.2713 21.2478 31.0968 21.5046 30.9796 21.7885C30.8625 22.0724 30.8053 22.3774 30.8115 22.6845C30.8051 22.9917 30.8621 23.2968 30.9791 23.5809C31.0961 23.8649 31.2706 24.1218 31.4916 24.3353C31.7126 24.5487 31.9753 24.7143 32.2633 24.8214C32.5513 24.9287 32.8584 24.9752 33.1651 24.9582C33.7959 24.9596 34.4171 24.804 34.9729 24.5058V26.7917C34.3381 26.9863 33.6784 27.0882 33.0144 27.0944C32.4219 27.1218 31.8301 27.0274 31.2755 26.8172C30.7209 26.6068 30.2154 26.285 29.7901 25.8716C29.3647 25.4583 29.0286 24.9624 28.8024 24.4141C28.5762 23.8658 28.4649 23.2769 28.4751 22.6838C28.4654 22.0911 28.5772 21.5025 28.8036 20.9546C29.0301 20.4067 29.3663 19.9112 29.7916 19.4982C30.2169 19.0852 30.7223 18.7639 31.2765 18.5537C31.8308 18.3435 32.4223 18.2489 33.0144 18.276C33.6791 18.2779 34.3395 18.3809 34.9729 18.5823V20.8674ZM12.5394 20.8674C11.9855 20.5658 11.3644 20.4091 10.7336 20.4123C10.4267 20.3949 10.1195 20.4414 9.83128 20.5483C9.543 20.6552 9.28 20.8204 9.05871 21.0338C8.83721 21.2472 8.66236 21.504 8.54493 21.7882C8.42757 22.0724 8.37021 22.3778 8.3765 22.6852C8.37014 22.9927 8.42743 23.2983 8.54471 23.5826C8.66193 23.8669 8.83671 24.1238 9.058 24.3374C9.27943 24.5508 9.54257 24.7162 9.83093 24.8232C10.1193 24.9302 10.4266 24.9764 10.7336 24.9589C11.3639 24.961 11.9846 24.8054 12.5394 24.5065V26.7924C11.904 26.988 11.2435 27.0899 10.5787 27.0951C9.98643 27.1225 9.39478 27.0282 8.84043 26.8178C8.28607 26.6075 7.78086 26.2857 7.35585 25.8723C6.93088 25.4588 6.59516 24.9627 6.36948 24.4144C6.1438 23.8662 6.03291 23.2774 6.04368 22.6845C6.03386 22.0921 6.14546 21.504 6.37161 20.9564C6.59778 20.4087 6.93371 19.9131 7.35868 19.5002C7.78364 19.0874 8.28864 18.7661 8.84257 18.5557C9.39643 18.3454 9.9875 18.2507 10.5794 18.2774C11.2445 18.2782 11.9055 18.3809 12.5394 18.5823V20.8674ZM41.7344 20.4444C41.4402 20.4416 41.1484 20.4978 40.8763 20.6097C40.6042 20.7216 40.3573 20.8869 40.1501 21.0959C39.943 21.3047 39.7799 21.5529 39.6703 21.8259C39.5607 22.0988 39.507 22.3912 39.5123 22.6852C39.5067 22.9795 39.5603 23.2717 39.6697 23.5449C39.7791 23.8182 39.9422 24.0669 40.1494 24.2759C40.3566 24.4851 40.6036 24.6505 40.8759 24.7625C41.1481 24.8745 41.44 24.9309 41.7344 24.9282C42.0288 24.9309 42.3207 24.8745 42.5929 24.7625C42.8651 24.6505 43.1122 24.4851 43.3194 24.2759C43.5267 24.0669 43.69 23.8185 43.7997 23.5453C43.9094 23.2721 43.9632 22.9796 43.958 22.6852C43.9625 22.3908 43.9079 22.0984 43.7975 21.8255C43.6871 21.5525 43.5231 21.3044 43.3151 21.0959C43.1079 20.887 42.861 20.7219 42.5889 20.61C42.3168 20.4982 42.0251 20.4417 41.7309 20.4444H41.7344ZM46.2309 22.6845C46.2363 23.2728 46.1229 23.8563 45.8976 24.3998C45.6722 24.9432 45.3396 25.4357 44.9194 25.8475C44.4993 26.2594 44.0004 26.5824 43.4524 26.7969C42.9046 27.0114 42.319 27.1129 41.7309 27.0958C41.1428 27.113 40.5572 27.0117 40.0093 26.7972C39.4614 26.5828 38.9624 26.26 38.5422 25.8482C38.122 25.4363 37.7892 24.9437 37.5639 24.4002C37.3386 23.8565 37.2253 23.2729 37.2308 22.6845C37.2258 22.0964 37.3394 21.5132 37.565 20.9699C37.7906 20.4267 38.1235 19.9348 38.5437 19.5232C38.9639 19.1117 39.4627 18.7889 40.0105 18.5746C40.5582 18.3603 41.1436 18.2588 41.7316 18.276C42.3194 18.2591 42.9046 18.3609 43.4522 18.5753C43.9999 18.7897 44.4986 19.1124 44.9186 19.5239C45.3387 19.9355 45.6714 20.4272 45.897 20.9703C46.1226 21.5134 46.2356 22.0965 46.2309 22.6845ZM25.7901 20.3631C25.242 20.2121 24.6783 20.1252 24.1101 20.1039C23.2487 20.1039 22.7809 20.3894 22.7809 20.8015C22.7809 21.3208 23.4123 21.5017 23.7659 21.6131L24.3586 21.8018C24.9217 21.9208 25.4284 22.226 25.7968 22.6682C26.1651 23.1103 26.3739 23.6634 26.3894 24.2387C26.3894 26.3815 24.508 27.0958 22.863 27.0958C22.0844 27.0886 21.3081 27.0109 20.5436 26.8632V24.9017C21.2038 25.0937 21.8858 25.2001 22.5729 25.2187C23.6444 25.2187 24.1336 24.906 24.1336 24.4239C24.1336 23.9953 23.7051 23.7432 23.1751 23.576C23.0459 23.5324 22.8494 23.4717 22.7165 23.4274C21.5194 23.0489 20.5215 22.3451 20.5215 20.9358C20.5215 19.3429 21.7144 18.2732 23.6951 18.2732C24.4016 18.2828 25.1045 18.3736 25.7901 18.5439V20.3617V20.3631Z" fill="white"/>
<path d="M3.76317 9.27363C3.76242 8.99127 3.64959 8.72063 3.4495 8.52134C3.24941 8.32205 2.97841 8.21055 2.69602 8.21091C2.4138 8.21077 2.14304 8.32227 1.94302 8.52134C1.74299 8.72041 1.63004 8.9907 1.62891 9.27291V11.5093C1.6367 11.7875 1.75239 12.0518 1.95156 12.2462C2.15073 12.4406 2.41772 12.5497 2.69602 12.5507C2.97464 12.5508 3.24224 12.4419 3.44165 12.2473C3.64106 12.0527 3.75646 11.7878 3.76317 11.5093V9.27363ZM9.62393 6.33943C9.62393 6.0564 9.51143 5.7848 9.31129 5.58468C9.11121 5.38455 8.83979 5.27218 8.55671 5.27218C8.27371 5.27218 8.00229 5.38455 7.80214 5.58468C7.60205 5.7848 7.48959 6.0564 7.48959 6.33943V11.5093C7.48959 11.7923 7.60205 12.0639 7.80214 12.264C8.00229 12.4641 8.27371 12.5765 8.55671 12.5765C8.83979 12.5765 9.11121 12.4641 9.31129 12.264C9.51143 12.0639 9.62393 11.7923 9.62393 11.5093V6.33943ZM15.4854 2.32365C15.4846 2.04132 15.3719 1.77073 15.1719 1.57135C14.9721 1.37198 14.7012 1.26025 14.4189 1.26025C14.1363 1.26006 13.8651 1.3718 13.6651 1.57135C13.465 1.7709 13.3524 2.04177 13.3518 2.32435V13.6336C13.3586 13.9121 13.4741 14.1768 13.6735 14.3713C13.8729 14.5658 14.1404 14.6745 14.4189 14.6744C14.6974 14.6745 14.9649 14.5658 15.1643 14.3713C15.3636 14.1768 15.4791 13.9121 15.486 13.6336L15.4854 2.32365ZM21.3461 6.33943C21.3461 6.0564 21.2336 5.7848 21.0335 5.58468C20.8334 5.38455 20.5619 5.27218 20.2789 5.27218C19.9959 5.27218 19.7244 5.38455 19.5243 5.58468C19.3241 5.7848 19.2117 6.0564 19.2117 6.33943V11.5093C19.2117 11.7923 19.3241 12.0639 19.5243 12.264C19.7244 12.4641 19.9959 12.5765 20.2789 12.5765C20.5619 12.5765 20.8334 12.4641 21.0335 12.264C21.2336 12.0639 21.3461 11.7923 21.3461 11.5093V6.33943ZM27.2031 9.27363C27.2034 8.99205 27.0917 8.72205 26.8929 8.52277C26.6939 8.32341 26.424 8.21134 26.1424 8.21091C25.8601 8.21034 25.5891 8.32184 25.389 8.52098C25.1889 8.7202 25.0761 8.99063 25.0753 9.27291V11.5093C25.0753 11.7913 25.1874 12.0621 25.3869 12.2616C25.5863 12.4611 25.8568 12.5731 26.1389 12.5731C26.4204 12.5721 26.69 12.4596 26.8886 12.2602C27.0874 12.0608 27.1989 11.7908 27.1989 11.5093L27.2031 9.27363ZM33.0668 6.33943C33.0599 6.06188 32.9448 5.7981 32.7461 5.60421C32.5474 5.41032 32.2808 5.30158 32.0032 5.30148C31.7256 5.30158 31.4589 5.41032 31.2603 5.60421C31.0616 5.7981 30.9465 6.06188 30.9396 6.33943V11.5093C30.9396 11.7913 31.0516 12.0621 31.2511 12.2616C31.4506 12.4611 31.7211 12.5731 32.0032 12.5731C32.2853 12.5731 32.5558 12.4611 32.7552 12.2616C32.9547 12.0621 33.0668 11.7913 33.0668 11.5093V6.33943ZM38.9318 2.32365C38.9316 2.0417 38.8194 1.77135 38.6199 1.57205C38.4205 1.37275 38.1501 1.26095 37.8682 1.26095C37.5862 1.26095 37.3158 1.37275 37.1164 1.57205C36.9169 1.77135 36.8048 2.0417 36.8046 2.32365V13.6336C36.7961 13.8256 36.8399 14.0163 36.931 14.1854C37.0222 14.3546 37.1574 14.4961 37.3224 14.5945C37.4875 14.6928 37.6761 14.7445 37.8682 14.7445C38.0603 14.7445 38.2489 14.6928 38.4139 14.5945C38.579 14.496 38.7144 14.3543 38.8055 14.1851C38.8967 14.0158 38.9404 13.8251 38.9318 13.633V2.32365ZM44.7954 6.33943C44.7949 6.19857 44.7666 6.05918 44.7121 5.92927C44.6577 5.79935 44.5782 5.6814 44.4781 5.58224C44.3779 5.48341 44.2593 5.40534 44.1289 5.3524C43.9984 5.29945 43.8589 5.27257 43.7182 5.27358C43.4361 5.27376 43.1655 5.38615 42.9661 5.58573C42.7666 5.7853 42.6546 6.05588 42.6546 6.33803V11.5086C42.6542 11.6486 42.6815 11.7872 42.7348 11.9166C42.7881 12.0461 42.8664 12.1638 42.9653 12.263C43.1649 12.4629 43.4357 12.5754 43.7182 12.5758C43.8591 12.5771 43.9989 12.5504 44.1295 12.4973C44.2601 12.4443 44.3788 12.3657 44.4789 12.2665C44.5791 12.1673 44.6586 12.0495 44.713 11.9194C44.7673 11.7893 44.7953 11.6496 44.7954 11.5086V6.33803V6.33943ZM50.6481 9.27363C50.6481 8.9912 50.5359 8.72034 50.3362 8.52063C50.1365 8.32091 49.8656 8.20848 49.5832 8.20848C49.3007 8.20848 49.0299 8.32091 48.8301 8.52063C48.6304 8.72034 48.5181 8.9912 48.5181 9.27363V11.5093C48.5179 11.6493 48.5452 11.7882 48.5986 11.9177C48.652 12.0472 48.7304 12.1648 48.8293 12.264C48.9282 12.3632 49.0457 12.4418 49.1751 12.4956C49.3044 12.5493 49.4431 12.5771 49.5832 12.5772C49.7231 12.5771 49.8616 12.5493 49.9909 12.4956C50.1201 12.4418 50.2375 12.3631 50.3363 12.264C50.4351 12.1649 50.5135 12.0474 50.5669 11.9181C50.6203 11.7887 50.6476 11.6499 50.6474 11.51V9.27434L50.6481 9.27363Z" fill="white"/>
<path d="M49.4158 25.8223V25.9558H49.0358V26.9439H48.8794V25.9566H48.498V25.8223H49.4158ZM49.4952 25.8223H49.7394L50.075 26.7423H50.0808L50.4058 25.823H50.6458V26.9439H50.4858V26.0246H50.4801L50.1401 26.9439H49.9923L49.6601 26.0246H49.653V26.9439H49.4965L49.4952 25.8223Z" fill="white"/>
</g>
</svg>
