<svg width="100" height="21" viewBox="0 0 100 21" fill="none" xmlns="http://www.w3.org/2000/svg">
<g clip-path="url(#clip0_2103_9193)">
<mask id="mask0_2103_9193" style="mask-type:luminance" maskUnits="userSpaceOnUse" x="0" y="0" width="100" height="20">
<path d="M99.6033 0.364258H0V19.8257H99.6033V0.364258Z" fill="white"/>
</mask>
<g mask="url(#mask0_2103_9193)">
<g opacity="0.4">
<path fill-rule="evenodd" clip-rule="evenodd" d="M3.03331 2.19617C3.7778 1.54931 4.64295 1.0562 5.57891 0.745297C6.51487 0.43439 7.50311 0.311826 8.48664 0.38467C9.47025 0.457514 10.4296 0.724327 11.3096 1.16972C12.1895 1.61512 12.9725 2.23029 13.6136 2.97977C14.9922 4.37382 15.7974 6.23445 15.8699 8.19364C15.9425 10.1529 15.2771 12.0679 14.0054 13.5601L8.12757 19.4379C6.95216 18.6543 4.99315 17.0871 5.77675 15.5191C7.34397 13.5601 9.30131 11.9945 10.871 10.033C12.0464 8.46584 11.2628 5.33059 8.91197 4.93879C8.38451 4.7544 7.81845 4.70854 7.26811 4.80559C6.71779 4.90265 6.2016 5.13938 5.76898 5.49311C5.33636 5.84684 5.00181 6.30572 4.79736 6.8258C4.59292 7.34588 4.52543 7.90974 4.60134 8.46338C4.60134 10.4224 6.16856 11.5978 7.34397 12.774C6.16856 13.9494 4.60134 14.733 4.60134 16.2986C3.42593 14.7314 1.46692 13.556 0.682494 11.5961C-0.03392 9.99221 -0.191649 8.19436 0.234543 6.49018C0.660735 4.78601 1.64621 3.27404 3.03331 2.19617Z" fill="white"/>
<path fill-rule="evenodd" clip-rule="evenodd" d="M28.1127 2.19639C28.5045 1.02098 29.6799 1.41279 30.4635 1.41279V15.907H28.1127V14.7349C27.1693 15.4956 25.9938 15.9104 24.782 15.9104C23.5701 15.9104 22.3947 15.4956 21.4512 14.7349C20.3661 13.7441 19.7161 12.3647 19.6427 10.8971C19.5693 9.42941 20.0785 7.99217 21.0594 6.89803C21.9416 5.93794 23.1414 5.32966 24.4372 5.18561C25.733 5.04156 27.0372 5.37149 28.1086 6.11443L28.1127 2.19639ZM24.5881 7.29066C22.6291 7.68246 21.0635 10.4251 22.6291 12.3849C22.9218 12.812 23.3217 13.1544 23.7887 13.3779C24.2556 13.6015 24.7731 13.6983 25.2893 13.6587C25.8055 13.6189 26.3021 13.4442 26.7293 13.1518C27.1566 12.8595 27.4994 12.4598 27.7234 11.9931C28.8963 10.0333 26.9365 7.28984 24.5856 7.28984L24.5881 7.29066Z" fill="white"/>
<path fill-rule="evenodd" clip-rule="evenodd" d="M32.4219 5.33052H34.7727V6.11413C35.5563 4.93872 37.1235 4.93872 38.6915 5.33052C38.2997 6.11413 37.9079 6.50593 37.9079 7.28954C36.3407 6.89773 34.7735 7.68134 34.7735 8.85672V14.7346C34.3809 15.9141 33.2055 15.9141 32.4219 15.9141V5.33052Z" fill="white"/>
<path fill-rule="evenodd" clip-rule="evenodd" d="M42.2179 5.33137C46.1368 3.76415 50.0548 7.68219 49.2671 11.601C48.4794 15.5199 42.9974 17.4789 40.2507 14.7355C37.1163 11.9929 38.2917 6.11497 42.2097 5.33137H42.2179ZM43.3933 7.29038C42.7353 7.46592 42.1353 7.81191 41.6538 8.29345C41.1722 8.77498 40.8262 9.37498 40.6507 10.033C40.5703 10.4801 40.5924 10.9396 40.7156 11.3768C40.8387 11.8141 41.0595 12.2176 41.3614 12.557C41.6632 12.8965 42.0383 13.1629 42.4581 13.3362C42.8779 13.5096 43.3317 13.5852 43.7851 13.5576C45.3524 13.5576 46.9196 12.3822 46.9196 10.815C46.9196 8.85761 44.9614 6.89858 43.395 7.29038H43.3933Z" fill="white"/>
<path fill-rule="evenodd" clip-rule="evenodd" d="M50.8389 5.33061H53.1897V6.11421C54.2612 5.37128 55.5653 5.04135 56.8611 5.18539C58.1569 5.32944 59.3568 5.93773 60.2389 6.89781C60.7233 7.40132 61.0993 7.99882 61.3437 8.6534C61.588 9.30799 61.6956 10.0057 61.6596 10.7034C61.6236 11.4012 61.445 12.0842 61.1346 12.7102C60.8243 13.3362 60.3889 13.8918 59.8553 14.3429C58.288 16.3019 55.1528 16.3019 53.1938 15.1265V18.6511C52.802 19.8265 51.6266 19.8265 50.843 19.8265V5.33061H50.8389ZM55.9331 7.28962C53.5823 7.68143 52.4085 10.4241 53.5823 11.9921C54.7577 13.9511 57.893 13.9511 58.6766 11.9921C60.243 10.0323 58.284 7.28962 55.9331 7.28962Z" fill="white"/>
<path fill-rule="evenodd" clip-rule="evenodd" d="M65.7291 5.72314C66.7208 5.16702 67.8646 4.94306 68.9928 5.08407C70.121 5.22508 71.1744 5.72365 71.9987 6.50675C71.6069 6.89855 71.2151 7.68216 70.4315 8.07396C70.0663 7.77805 69.6373 7.5711 69.1783 7.46945C68.7193 7.36779 68.243 7.37421 67.787 7.4882C67.331 7.60219 66.9076 7.82063 66.5505 8.12628C66.1933 8.43193 65.9121 8.8164 65.7291 9.24935C65.5587 9.71337 65.4978 10.2103 65.5507 10.7018C65.6037 11.1932 65.7693 11.6657 66.0346 12.0828C66.3 12.4998 66.6578 12.85 67.0805 13.1062C67.5032 13.3624 67.9792 13.5177 68.4717 13.56C69.2553 13.56 70.0389 13.1682 70.8225 13.1682C71.5224 13.4764 72.0815 14.0355 72.3897 14.7354C69.6471 17.0862 64.9446 16.3026 63.7692 12.7764C62.202 10.4248 63.3774 7.28872 65.7291 5.72314Z" fill="white"/>
<path fill-rule="evenodd" clip-rule="evenodd" d="M72.3908 12.3841C71.217 8.85786 73.958 4.93896 77.4851 4.93896C78.8958 5.00055 80.2442 5.53737 81.3114 6.4622C82.3788 7.38704 83.1017 8.64556 83.3632 10.0333V15.9111C82.1878 15.9111 81.4039 15.9111 80.6203 15.1275C77.8777 17.0865 73.5711 15.5193 72.3916 12.3849L72.3908 12.3841ZM77.4851 7.28978C76.9454 7.39132 76.4379 7.62045 76.0048 7.95807C75.5718 8.29569 75.2258 8.73204 74.9957 9.23056C74.7656 9.72917 74.6582 10.2756 74.6823 10.8242C74.7064 11.3727 74.8613 11.9075 75.1342 12.3841C76.7015 14.3431 79.8367 13.9513 80.6203 11.9923C80.821 11.4756 80.8943 10.9181 80.8341 10.3671C80.7739 9.81605 80.582 9.28761 80.2745 8.82638C79.967 8.36519 79.553 7.98479 79.0674 7.71734C78.5819 7.44988 78.0392 7.30324 77.4851 7.28978Z" fill="white"/>
<path fill-rule="evenodd" clip-rule="evenodd" d="M84.9307 5.33179H87.2815V6.11539C88.4569 4.54818 91.2003 4.93998 92.7676 6.5072C94.7266 4.15638 98.6454 4.93998 99.429 7.68261C99.8208 10.0334 99.429 12.7769 99.429 15.1277C99.429 15.9113 98.2536 15.9113 97.0782 15.9113C97.0782 13.5605 97.47 11.2088 97.0782 8.86212C97.002 8.45072 96.7839 8.07911 96.4618 7.81168C96.1397 7.54425 95.7348 7.39784 95.3159 7.39784C94.8979 7.39784 94.4921 7.54425 94.1708 7.81168C93.8487 8.07911 93.6307 8.45072 93.5536 8.86212V15.9113H91.2028C91.2675 13.4232 91.1372 10.9338 90.811 8.46621C90.4192 6.899 87.6766 7.2908 87.6766 8.85802C87.3512 11.1929 87.22 13.5506 87.2848 15.9072H84.9307V5.33179Z" fill="white"/>
</g>
</g>
</g>
<defs>
<clipPath id="clip0_2103_9193">
<rect width="100" height="19.6721" fill="white" transform="translate(0 0.364258)"/>
</clipPath>
</defs>
</svg>
