<svg width="100" height="31" viewBox="0 0 100 31" fill="none" xmlns="http://www.w3.org/2000/svg">
<g clip-path="url(#clip0_2103_9209)">
<mask id="mask0_2103_9209" style="mask-type:luminance" maskUnits="userSpaceOnUse" x="0" y="0" width="99" height="31">
<path d="M98.9934 0.200195H0.799805V30.0142H98.9934V0.200195Z" fill="white"/>
</mask>
<g mask="url(#mask0_2103_9209)">
<g opacity="0.4">
<path d="M0.799805 21.2842V0.636995H4.4262V21.2842H0.799805ZM13.7106 6.3058C12.6845 6.28267 11.6641 6.46512 10.7096 6.84238C9.75502 7.21964 8.88563 7.7841 8.15258 8.50249C7.41952 9.2209 6.83763 10.0787 6.44117 11.0255C6.04473 11.9722 5.84172 12.9887 5.84412 14.0151C5.84652 15.0414 6.05428 16.057 6.45516 17.0019C6.85605 17.9466 7.44195 18.8018 8.17835 19.5167C8.91476 20.2317 9.78679 20.7921 10.7431 21.1649C11.6994 21.5376 12.7206 21.7154 13.7466 21.6874C14.7646 21.6975 15.7745 21.5055 16.7178 21.1223C17.661 20.7392 18.5188 20.1726 19.2414 19.4554C19.9639 18.7383 20.537 17.8848 20.9273 16.9445C21.3176 16.0042 21.5173 14.9958 21.5149 13.9778C21.5125 12.9597 21.3082 11.9522 20.9135 11.0138C20.5188 10.0753 19.9417 9.22457 19.2157 8.51081C18.4898 7.79705 17.6293 7.23451 16.6843 6.85579C15.7393 6.47707 14.7286 6.29093 13.7106 6.3058ZM13.6686 9.8002C14.6293 9.79716 15.5614 10.1272 16.3061 10.734C17.0508 11.3409 17.5622 12.1871 17.7532 13.1286C17.9442 14.0702 17.803 15.0488 17.3537 15.8979C16.9043 16.747 16.1744 17.4141 15.2886 17.7856C14.4026 18.1572 13.4153 18.2103 12.4947 17.9358C11.5741 17.6613 10.777 17.0762 10.2392 16.2801C9.70146 15.4841 9.4562 14.5263 9.54521 13.5696C9.63422 12.6131 10.052 11.717 10.7274 11.0338C11.5068 10.2509 12.5639 9.8075 13.6686 9.8002ZM30.6654 6.3058C29.6393 6.28267 28.6189 6.46512 27.6643 6.84238C26.7098 7.21964 25.8404 7.7841 25.1074 8.50249C24.3743 9.2209 23.7924 10.0787 23.3959 11.0255C22.9996 11.9722 22.7965 12.9887 22.7989 14.0151C22.8013 15.0414 23.009 16.057 23.41 17.0019C23.8109 17.9466 24.3967 18.8018 25.1332 19.5167C25.8696 20.2317 26.7416 20.7921 27.6979 21.1649C28.6542 21.5376 29.6754 21.7154 30.7014 21.6874C31.7262 21.7124 32.7454 21.5302 33.698 21.1518C34.6507 20.7735 35.5171 20.2067 36.2455 19.4854C36.9738 18.7641 37.5491 17.9032 37.9367 16.9542C38.3243 16.0054 38.5164 14.9879 38.5014 13.963C38.6032 12.549 38.1826 11.1468 37.3194 10.0222L38.325 9.6778V6.7342H33.1806C32.37 6.4533 31.5185 6.30854 30.6606 6.3058H30.6654ZM30.6234 9.8002C31.584 9.79771 32.5158 10.1282 33.26 10.7354C34.0044 11.3425 34.5154 12.1889 34.7059 13.1304C34.8965 14.0718 34.7549 15.0503 34.3054 15.8992C33.8557 16.7481 33.1258 17.4148 32.2398 17.7861C31.354 18.1574 30.3667 18.2102 29.4462 17.9355C28.5257 17.6608 27.7289 17.0757 27.1913 16.2796C26.6537 15.4836 26.4085 14.5258 26.4977 13.5694C26.5867 12.6129 27.0044 11.7169 27.6798 11.0338C28.4598 10.2503 29.5178 9.80687 30.6234 9.8002ZM34.8234 22.2898C34.8234 23.3999 34.3824 24.4646 33.5975 25.2495C32.8126 26.0344 31.7479 26.4754 30.6378 26.4754C29.5277 26.4754 28.463 26.0344 27.6781 25.2495C26.8932 24.4646 26.4522 23.3999 26.4522 22.2898H22.7718C22.7546 23.3243 22.9488 24.3514 23.3426 25.3082C23.7364 26.2649 24.3215 27.1312 25.0619 27.8538C25.8023 28.5765 26.6825 29.1404 27.6485 29.5108C28.6145 29.8812 29.646 30.0504 30.6798 30.0082C31.7039 30.0344 32.7228 29.8533 33.6752 29.476C34.6277 29.0987 35.4941 28.5329 36.2226 27.8126C36.951 27.0922 37.5264 26.2322 37.9142 25.2839C38.3022 24.3357 38.4946 23.3189 38.4798 22.2946L34.8234 22.2898ZM39.9618 21.2806V6.7342H43.5894V21.2842L39.9618 21.2806ZM47.1102 21.2806V9.9934H45.165V6.7342H47.1102V2.2666H50.7366V6.7342H52.7346V9.9934H50.7366V21.2842L47.1102 21.2806ZM44.169 2.6002C44.169 3.07487 44.0282 3.53888 43.7645 3.93356C43.5008 4.32824 43.126 4.63585 42.6875 4.81751C42.2489 4.99915 41.7664 5.04668 41.3008 4.95408C40.8353 4.86148 40.4076 4.6329 40.072 4.29725C39.7363 3.96161 39.5077 3.53396 39.4151 3.06841C39.3226 2.60286 39.3701 2.1203 39.5516 1.68175C39.7333 1.24321 40.041 0.868384 40.4357 0.604669C40.8304 0.340953 41.2943 0.200195 41.769 0.200195C42.4055 0.200195 43.0159 0.453052 43.466 0.903139C43.9162 1.35323 44.169 1.96368 44.169 2.6002ZM60.8886 6.2962C59.8633 6.2754 58.8446 6.46418 57.8948 6.85097C56.945 7.23775 56.0843 7.81441 55.3652 8.54558C54.6462 9.27676 54.084 10.1471 53.7132 11.1032C53.3424 12.0593 53.1707 13.081 53.2086 14.1058C53.1666 15.1284 53.3399 16.1486 53.7173 17.1C54.0947 18.0515 54.6678 18.913 55.3994 19.6288C56.1311 20.3446 57.0049 20.8986 57.9643 21.2552C58.9238 21.6117 59.9474 21.7626 60.969 21.6982C62.2016 21.7372 63.4283 21.5109 64.5659 21.0347C65.7036 20.5586 66.7256 19.8436 67.563 18.9382L65.139 16.5106C64.0514 17.6498 62.585 18.3521 61.0158 18.4858C60.1057 18.5216 59.2116 18.2394 58.4868 17.6879C57.762 17.1364 57.2519 16.3497 57.0438 15.463H68.3454V14.4646C68.3454 10.4794 66.039 6.2974 60.8946 6.2974L60.8886 6.2962ZM60.7686 9.4894C61.6595 9.43817 62.5378 9.71968 63.2329 10.2793C63.928 10.839 64.3904 11.6369 64.5306 12.5182H56.9346C57.1129 11.6407 57.5966 10.8548 58.2997 10.3003C59.0028 9.7457 59.8796 9.4584 60.7746 9.4894H60.7686ZM77.4114 21.6994C76.3997 21.7005 75.3977 21.5021 74.4626 21.116C73.5275 20.7297 72.6776 20.1632 71.9616 19.4484C70.5154 18.0052 69.7016 16.0464 69.6996 14.0032C69.6976 11.96 70.5072 9.9996 71.9506 8.55336C73.3938 7.10712 75.3526 6.29346 77.3958 6.2914C78.5837 6.2825 79.7586 6.53906 80.8346 7.04231C81.9107 7.54556 82.8607 8.28281 83.6154 9.2002L81.0798 11.7202C80.6268 11.1654 80.0635 10.7106 79.4256 10.3847C78.7878 10.0587 78.0893 9.86869 77.3742 9.8266C76.8235 9.81288 76.2756 9.91085 75.7638 10.1146C75.2519 10.3183 74.7867 10.6236 74.3959 11.012C74.0053 11.4005 73.6973 11.864 73.4906 12.3747C73.284 12.8854 73.1828 13.4326 73.1934 13.9834C73.1795 14.5355 73.2769 15.0846 73.4799 15.5984C73.6828 16.112 73.9871 16.5795 74.3746 16.973C74.7619 17.3664 75.2248 17.678 75.7351 17.8888C76.2455 18.0996 76.7932 18.2055 77.3454 18.2002C78.0658 18.1628 78.7704 17.9747 79.4136 17.6481C80.0568 17.3216 80.6244 16.8638 81.0798 16.3042L83.6358 18.8242C82.879 19.7386 81.927 20.4719 80.8496 20.9703C79.7723 21.4686 78.5971 21.7194 77.4102 21.7042L77.4114 21.6994ZM84.957 21.295V0.584195H88.5834V8.1934C89.1289 7.56622 89.8086 7.06975 90.5719 6.74072C91.3352 6.41171 92.1629 6.25855 92.9934 6.2926C96.7914 6.2926 98.9934 9.1162 98.9934 12.727V21.295H95.3598V13.2802C95.4143 12.8376 95.3715 12.3886 95.2344 11.9644C95.0973 11.5401 94.8691 11.151 94.5659 10.8241C94.2626 10.4972 93.8917 10.2405 93.4789 10.072C93.0661 9.9034 92.6215 9.82703 92.1762 9.8482C91.6919 9.80969 91.205 9.87708 90.7494 10.0457C90.2938 10.2143 89.8802 10.4801 89.5376 10.8246C89.1952 11.1691 88.9316 11.5841 88.7657 12.0407C88.5996 12.4972 88.5349 12.9845 88.5762 13.4686V21.301H84.957V21.295Z" fill="white"/>
</g>
</g>
</g>
<defs>
<clipPath id="clip0_2103_9209">
<rect width="98.4" height="30" fill="white" transform="translate(0.799805 0.200195)"/>
</clipPath>
</defs>
</svg>
