<svg width="100" height="31" viewBox="0 0 100 31" fill="none" xmlns="http://www.w3.org/2000/svg">
<g clip-path="url(#clip0_2103_9218)">
<mask id="mask0_2103_9218" style="mask-type:luminance" maskUnits="userSpaceOnUse" x="0" y="0" width="99" height="30">
<path d="M98.9 0.200195H0.5V29.7122H98.9V0.200195Z" fill="white"/>
</mask>
<g mask="url(#mask0_2103_9218)">
<g opacity="0.4">
<path d="M15.257 0.200195C12.3385 0.200393 9.48572 1.06599 7.05924 2.68752C4.63276 4.30905 2.7416 6.61369 1.62491 9.31002C0.508213 12.0063 0.216138 14.9732 0.785614 17.8356C1.35509 20.6979 2.76054 23.3271 4.82425 25.3906C6.88795 27.4542 9.51722 28.8595 12.3796 29.4287C15.2419 29.998 18.2088 29.7057 20.9051 28.5889C23.6013 27.472 25.9058 25.5807 27.5272 23.1541C29.1486 20.7275 30.014 17.8746 30.014 14.9562C30.014 13.0183 29.6323 11.0994 28.8906 9.30908C28.149 7.51874 27.062 5.892 25.6917 4.52178C24.3213 3.15154 22.6945 2.06465 20.9041 1.32315C19.1137 0.581642 17.1948 0.200064 15.257 0.200195ZM22.024 21.4822C21.9606 21.585 21.8777 21.6743 21.7798 21.745C21.6819 21.8157 21.5711 21.8665 21.4536 21.8943C21.3361 21.9222 21.2143 21.9266 21.0951 21.9074C20.9759 21.8881 20.8617 21.8456 20.759 21.7822C17.294 19.6662 12.933 19.1822 7.79596 20.3602C7.55806 20.4144 7.30836 20.3719 7.10179 20.2421C6.89522 20.1122 6.7487 19.9056 6.69446 19.6677C6.64022 19.4298 6.68271 19.1801 6.81258 18.9735C6.94245 18.767 7.14906 18.6204 7.38696 18.5662C13.008 17.2822 17.83 17.8352 21.719 20.2122C21.8227 20.2752 21.913 20.3582 21.9846 20.4563C22.0561 20.5543 22.1076 20.6656 22.1359 20.7837C22.1643 20.9017 22.169 21.0242 22.1498 21.1441C22.1306 21.264 22.0878 21.3789 22.024 21.4822ZM23.83 17.4642C23.6705 17.7243 23.4142 17.9104 23.1176 17.9816C22.821 18.0529 22.5082 18.0034 22.248 17.8442C17.769 15.3471 12.4826 14.7282 7.54796 16.1232C7.25622 16.2124 6.94098 16.1821 6.67158 16.039C6.40219 15.8958 6.20071 15.6514 6.11146 15.3597C6.02221 15.068 6.05252 14.7527 6.1957 14.4833C6.33888 14.2139 6.58322 14.0124 6.87496 13.9232C9.62881 13.1304 12.5132 12.8954 15.3591 13.232C18.205 13.5685 20.955 14.4699 23.448 15.8832C23.5767 15.9622 23.6887 16.0657 23.7775 16.188C23.8662 16.3102 23.93 16.4488 23.9652 16.5957C24.0004 16.7426 24.0063 16.895 23.9826 17.0442C23.9589 17.1934 23.906 17.3364 23.827 17.4652L23.83 17.4642ZM23.985 13.2802C19.229 10.4552 11.385 10.1952 6.84196 11.5742C6.66745 11.6307 6.48344 11.6518 6.30067 11.6363C6.11791 11.6209 5.94006 11.5691 5.77752 11.4841C5.61499 11.3992 5.47102 11.2826 5.35405 11.1413C5.23708 11.0001 5.14945 10.8369 5.09627 10.6613C5.0431 10.4858 5.02545 10.3014 5.04436 10.119C5.06327 9.93653 5.11837 9.75968 5.20642 9.59877C5.29447 9.43787 5.41371 9.29615 5.55717 9.18187C5.70064 9.06758 5.86545 8.98305 6.04196 8.9332C11.254 7.3512 19.919 7.6562 25.395 10.9072C25.5508 10.9996 25.687 11.1219 25.7956 11.267C25.9043 11.412 25.9832 11.5771 26.0281 11.7527C26.0729 11.9283 26.0828 12.111 26.057 12.2904C26.0313 12.4698 25.9704 12.6423 25.878 12.7982C25.7855 12.9541 25.6633 13.0902 25.5182 13.1989C25.3731 13.3075 25.2081 13.3865 25.0325 13.4313C24.8569 13.4762 24.6742 13.486 24.4948 13.4603C24.3154 13.4345 24.1428 13.3736 23.987 13.2812L23.985 13.2802ZM40.648 13.8232C38.1 13.2152 37.648 12.7892 37.648 11.8932C37.648 11.0462 38.448 10.4772 39.63 10.4772C40.9047 10.5227 42.1287 10.9878 43.112 11.8002C43.1298 11.8134 43.1502 11.8229 43.1717 11.8282C43.1933 11.8335 43.2157 11.8344 43.2377 11.831C43.2596 11.8275 43.2807 11.8198 43.2996 11.8081C43.3185 11.7965 43.335 11.7812 43.348 11.7632L44.592 10.0092C44.6166 9.97442 44.627 9.93154 44.6211 9.88934C44.6151 9.84714 44.5933 9.80881 44.56 9.7822C43.1814 8.65456 41.4477 8.05223 39.667 8.0822C36.916 8.0822 34.994 9.7332 34.994 12.0952C34.994 14.6282 36.652 15.5252 39.517 16.2172C41.954 16.7792 42.366 17.2492 42.366 18.0902C42.366 19.0222 41.534 19.6022 40.195 19.6022C38.6762 19.5905 37.2213 18.9896 36.137 17.9262C36.1031 17.8974 36.0594 17.8827 36.015 17.8852C35.9929 17.8867 35.9713 17.8926 35.9516 17.9025C35.9318 17.9125 35.9143 17.9263 35.9 17.9432L34.5 19.6032C34.4719 19.6365 34.4579 19.6795 34.4608 19.7229C34.4638 19.7664 34.4836 19.807 34.516 19.8362C36.0542 21.23 38.0582 21.9979 40.134 21.9892C43.098 21.9892 45.013 20.3702 45.013 17.8622C45.018 15.7462 43.751 14.5742 40.648 13.8202H40.643L40.648 13.8232ZM51.724 11.3102C51.1062 11.3021 50.4951 11.4372 49.9383 11.7049C49.3815 11.9726 48.8944 12.3657 48.515 12.8532V11.6852C48.5151 11.6633 48.5109 11.6416 48.5026 11.6214C48.4943 11.6011 48.4821 11.5827 48.4667 11.5672C48.4513 11.5517 48.4329 11.5393 48.4127 11.5309C48.3925 11.5225 48.3708 11.5182 48.349 11.5182H46.068C46.0461 11.5182 46.0244 11.5225 46.0042 11.5309C45.984 11.5393 45.9657 11.5517 45.9502 11.5672C45.9348 11.5827 45.9226 11.6011 45.9143 11.6214C45.906 11.6416 45.9018 11.6633 45.902 11.6852V24.6542C45.902 24.6983 45.9194 24.7406 45.9505 24.7719C45.9816 24.8032 46.0238 24.8209 46.068 24.8212H48.348C48.3921 24.8209 48.4343 24.8032 48.4654 24.7719C48.4965 24.7406 48.514 24.6983 48.514 24.6542V20.5612C48.9074 21.0265 49.3995 21.3982 49.9546 21.6494C50.5097 21.9005 51.1138 22.0248 51.723 22.0132C54.111 22.0132 56.528 20.1752 56.528 16.6622C56.528 13.1492 54.114 11.3092 51.728 11.3092L51.724 11.3102ZM53.876 16.6622C53.9159 17.041 53.8768 17.4239 53.761 17.7867C53.6452 18.1495 53.4553 18.4844 53.2034 18.77C52.9514 19.0556 52.6429 19.2857 52.2974 19.4459C51.9518 19.606 51.5767 19.6926 51.196 19.7002C50.8143 19.688 50.439 19.5988 50.0926 19.438C49.7462 19.2771 49.4359 19.048 49.1803 18.7642C48.9247 18.4805 48.729 18.1481 48.6051 17.7868C48.4811 17.4256 48.4314 17.0431 48.459 16.6622C48.4313 16.2812 48.4809 15.8986 48.6048 15.5372C48.7287 15.1759 48.9243 14.8433 49.1799 14.5595C49.4356 14.2757 49.7459 14.0464 50.0923 13.8855C50.4388 13.7246 50.8142 13.6354 51.196 13.6232C51.5752 13.6352 51.948 13.7247 52.2914 13.8862C52.6347 14.0478 52.9414 14.2779 53.1924 14.5624C53.4435 14.8469 53.6337 15.1798 53.7512 15.5406C53.8688 15.9014 53.9112 16.2824 53.876 16.6602V16.6622ZM62.723 11.3102C61.6663 11.3301 60.6391 11.6618 59.7703 12.2635C58.9015 12.8652 58.2299 13.7103 57.8398 14.6924C57.4496 15.6746 57.3584 16.7502 57.5775 17.7841C57.7966 18.8179 58.3162 19.764 59.0712 20.5035C59.8262 21.243 60.7829 21.743 61.821 21.9406C62.8592 22.1383 63.9327 22.0248 64.9066 21.6144C65.8805 21.204 66.7114 20.515 67.295 19.6339C67.8786 18.7529 68.1889 17.719 68.187 16.6622C68.1833 15.9509 68.0387 15.2474 67.7615 14.5924C67.4842 13.9374 67.0798 13.3438 66.5717 12.8461C66.0635 12.3484 65.4617 11.9564 64.8011 11.6927C64.1405 11.4291 63.4342 11.2991 62.723 11.3102ZM62.723 19.7182C62.3312 19.7146 61.9443 19.6316 61.5856 19.4744C61.2268 19.3171 60.9036 19.0888 60.6355 18.8032C60.3674 18.5176 60.1599 18.1807 60.0256 17.8127C59.8912 17.4447 59.8329 17.0534 59.854 16.6622C59.8286 16.2749 59.8831 15.8866 60.014 15.5213C60.1449 15.1559 60.3495 14.8213 60.615 14.5383C60.8805 14.2552 61.2013 14.0297 61.5576 13.8758C61.9138 13.7218 62.2979 13.6426 62.686 13.6432C63.0788 13.6459 63.467 13.7282 63.8271 13.885C64.1873 14.0418 64.512 14.2698 64.7817 14.5555C65.0514 14.8411 65.2604 15.1784 65.3962 15.547C65.532 15.9156 65.5918 16.3079 65.572 16.7002C65.5964 17.0886 65.5407 17.4779 65.4083 17.8439C65.276 18.2099 65.0699 18.5448 64.8027 18.8278C64.5356 19.1108 64.2131 19.3358 63.8553 19.489C63.4976 19.6422 63.1121 19.7202 62.723 19.7182ZM74.753 11.5182H72.242V8.9512C72.2421 8.92932 72.2379 8.90762 72.2296 8.88737C72.2213 8.86711 72.2091 8.84869 72.1937 8.83317C72.1783 8.81765 72.1599 8.80533 72.1397 8.79693C72.1195 8.78853 72.0978 8.78419 72.076 8.78419H69.795C69.7507 8.78446 69.7084 8.80214 69.6772 8.8334C69.6459 8.86465 69.6282 8.90699 69.628 8.9512V11.5182H68.528C68.5061 11.5182 68.4844 11.5225 68.4642 11.5309C68.444 11.5393 68.4257 11.5517 68.4102 11.5672C68.3948 11.5827 68.3826 11.6011 68.3743 11.6214C68.366 11.6416 68.3618 11.6633 68.362 11.6852V13.6462C68.362 13.6903 68.3794 13.7326 68.4105 13.7639C68.4416 13.7952 68.4838 13.8129 68.528 13.8132H69.628V18.8872C69.628 20.9362 70.648 21.9762 72.662 21.9762C73.4088 21.9941 74.1467 21.8103 74.798 21.4442C74.8238 21.4301 74.8454 21.4093 74.8603 21.3839C74.8753 21.3586 74.8831 21.3296 74.883 21.3002V19.4312C74.8829 19.4029 74.8756 19.3751 74.8618 19.3504C74.848 19.3258 74.8281 19.305 74.804 19.2902C74.78 19.2749 74.7523 19.2662 74.7239 19.265C74.6955 19.2637 74.6672 19.27 74.642 19.2832C74.2282 19.4972 73.7688 19.6077 73.303 19.6052C72.572 19.6052 72.244 19.2722 72.244 18.5282V13.8142H74.755C74.7768 13.8142 74.7985 13.8099 74.8187 13.8015C74.8389 13.7931 74.8573 13.7807 74.8727 13.7652C74.8881 13.7497 74.9003 13.7313 74.9086 13.711C74.9169 13.6908 74.9211 13.6691 74.921 13.6472V11.6872C74.9216 11.6653 74.9179 11.6436 74.9099 11.6232C74.902 11.6028 74.89 11.5843 74.8746 11.5687C74.8593 11.5531 74.841 11.5407 74.8208 11.5324C74.8005 11.5241 74.7788 11.5199 74.757 11.5202L74.753 11.5182ZM83.5 11.5282V11.2132C83.5 10.2862 83.856 9.8722 84.652 9.8722C85.091 9.87739 85.5259 9.95754 85.938 10.1092C85.9631 10.1177 85.9898 10.12 86.016 10.116C86.0422 10.112 86.0671 10.1018 86.0885 10.0862C86.1099 10.0707 86.1273 10.0502 86.1393 10.0265C86.1512 10.0029 86.1572 9.97669 86.157 9.9502V8.0232C86.1574 7.98733 86.1461 7.9523 86.1248 7.92343C86.1035 7.89456 86.0733 7.87342 86.039 7.8632C85.4234 7.67525 84.7825 7.5835 84.139 7.5912C82.033 7.5912 80.918 8.7782 80.918 11.0212V11.5042H79.818C79.7738 11.5045 79.7314 11.5221 79.7002 11.5534C79.6689 11.5847 79.6512 11.627 79.651 11.6712V13.6422C79.6512 13.6864 79.6689 13.7287 79.7002 13.76C79.7314 13.7913 79.7738 13.8089 79.818 13.8092H80.918V21.6342C80.918 21.6785 80.9356 21.721 80.9669 21.7523C80.9982 21.7836 81.0407 21.8012 81.085 21.8012H83.365C83.3869 21.8013 83.4087 21.7971 83.429 21.7888C83.4494 21.7804 83.4678 21.7681 83.4833 21.7526C83.4989 21.737 83.5112 21.7186 83.5195 21.6983C83.5279 21.6779 83.5321 21.6562 83.532 21.6342V13.8142H85.662L88.925 21.6382C88.555 22.4592 88.19 22.6232 87.693 22.6232C87.2501 22.6122 86.8173 22.489 86.435 22.2652C86.394 22.2447 86.3469 22.2405 86.303 22.2532C86.2809 22.2604 86.2607 22.2721 86.2434 22.2876C86.2262 22.3031 86.2124 22.322 86.203 22.3432L85.429 24.0432C85.4111 24.0817 85.4086 24.1256 85.422 24.166C85.4354 24.2063 85.4636 24.24 85.501 24.2602C86.2428 24.6808 87.0833 24.8962 87.936 24.8842C89.621 24.8842 90.553 24.0982 91.372 21.9842L95.338 11.7562C95.3478 11.7311 95.3514 11.7039 95.3485 11.6771C95.3456 11.6503 95.3362 11.6245 95.3212 11.6021C95.3061 11.5797 95.2859 11.5613 95.2622 11.5484C95.2384 11.5355 95.212 11.5286 95.185 11.5282H92.809C92.7741 11.5279 92.74 11.5386 92.7115 11.5587C92.683 11.5788 92.6615 11.6073 92.65 11.6402L90.217 18.5892L87.548 11.6362C87.536 11.6048 87.5148 11.5777 87.4871 11.5586C87.4594 11.5395 87.4266 11.5292 87.393 11.5292H83.493L83.5 11.5282ZM78.429 11.5182H76.148C76.1038 11.5185 76.0614 11.5361 76.0302 11.5674C75.9989 11.5987 75.9812 11.641 75.981 11.6852V21.6372C75.981 21.6591 75.9853 21.6808 75.9937 21.7011C76.0021 21.7214 76.0144 21.7398 76.0299 21.7553C76.0454 21.7708 76.0638 21.7831 76.0841 21.7915C76.1043 21.7999 76.126 21.8042 76.148 21.8042H78.43C78.4519 21.8042 78.4736 21.7999 78.4939 21.7915C78.5141 21.7831 78.5325 21.7708 78.548 21.7553C78.5636 21.7398 78.5759 21.7214 78.5843 21.7011C78.5926 21.6808 78.597 21.6591 78.597 21.6372V11.6862C78.597 11.6419 78.5794 11.5994 78.548 11.5681C78.5167 11.5368 78.4743 11.5192 78.43 11.5192L78.429 11.5182ZM77.301 6.9862C76.9774 6.986 76.661 7.08176 76.3919 7.26136C76.1227 7.44096 75.9129 7.69634 75.7889 7.99521C75.6649 8.29407 75.6323 8.62299 75.6952 8.94038C75.7581 9.25778 75.9138 9.54938 76.1424 9.77832C76.3711 10.0073 76.6625 10.1632 76.9798 10.2266C77.2971 10.2899 77.6261 10.2577 77.9251 10.134C78.2241 10.0104 78.4798 9.80087 78.6597 9.53194C78.8396 9.26301 78.9358 8.94677 78.936 8.6232C78.9361 8.40836 78.8939 8.19559 78.8118 7.99705C78.7297 7.79851 78.6093 7.61809 78.4575 7.46608C78.3057 7.31407 78.1254 7.19345 77.927 7.11112C77.7285 7.02878 77.5158 6.98633 77.301 6.9862ZM97.287 14.7232C96.9689 14.7224 96.6582 14.6274 96.3941 14.4503C96.13 14.2731 95.9242 14.0217 95.8029 13.7277C95.6815 13.4337 95.6499 13.1104 95.712 12.7985C95.7742 12.4866 95.9274 12.2001 96.1522 11.9751C96.377 11.7502 96.6634 11.5968 96.9753 11.5345C97.2871 11.4721 97.6105 11.5035 97.9045 11.6247C98.1986 11.7459 98.4501 11.9515 98.6275 12.2155C98.8048 12.4795 98.9 12.7902 98.901 13.1082C98.903 13.3208 98.8626 13.5316 98.7822 13.7284C98.7018 13.9251 98.583 14.1039 98.4328 14.2543C98.2825 14.4046 98.1038 14.5235 97.9071 14.6041C97.7103 14.6846 97.4995 14.7251 97.287 14.7232ZM97.296 11.6632C97.0084 11.6604 96.7265 11.7432 96.4861 11.9011C96.2457 12.0589 96.0577 12.2847 95.9459 12.5497C95.8342 12.8147 95.8037 13.1069 95.8585 13.3892C95.9133 13.6716 96.0508 13.9312 96.2535 14.1352C96.4562 14.3392 96.715 14.4783 96.997 14.5348C97.279 14.5914 97.5714 14.5628 97.8371 14.4527C98.1027 14.3426 98.3297 14.156 98.489 13.9166C98.6484 13.6772 98.7329 13.3958 98.732 13.1082C98.7332 12.9189 98.6969 12.7312 98.6253 12.5559C98.5536 12.3806 98.448 12.2213 98.3146 12.087C98.1811 11.9527 98.0224 11.8461 97.8476 11.7734C97.6728 11.7006 97.4853 11.6632 97.296 11.6632ZM97.652 13.2732L98.107 13.9092H97.723L97.314 13.3262H96.963V13.9092H96.642V12.2232H97.393C97.786 12.2232 98.043 12.4232 98.043 12.7612C98.0487 12.8787 98.0128 12.9944 97.9417 13.088C97.8705 13.1817 97.7687 13.2472 97.654 13.2732H97.652ZM97.381 12.5132H96.963V13.0462H97.381C97.589 13.0462 97.714 12.9462 97.714 12.7792C97.714 12.6122 97.588 12.5082 97.38 12.5082L97.381 12.5132Z" fill="white"/>
</g>
</g>
</g>
<defs>
<clipPath id="clip0_2103_9218">
<rect width="99" height="30" fill="white" transform="translate(0.5 0.200195)"/>
</clipPath>
</defs>
</svg>
