<svg width="410" height="168" viewBox="0 0 410 168" fill="none" xmlns="http://www.w3.org/2000/svg">
<g clip-path="url(#clip0_2103_9318)">
<path d="M128.949 123.866H128.195C122.287 123.641 116.958 120.34 114.271 115.289C111.584 110.238 111.74 105.088 111.717 99.7622C111.673 95.0115 111.651 90.5106 110.029 86.56C105.944 76.6584 93.6638 74.8332 84.1819 78.1838C79.6518 79.759 75.2995 82.2593 71.0804 84.6597C66.4837 87.2851 61.7317 90.0106 56.6464 91.6358C52.1608 93.086 38.9927 93.0359 26.9792 92.861H22.7601C22.6047 92.8611 22.4507 92.8259 22.3076 92.7574C22.1646 92.689 22.0353 92.5887 21.9274 92.4627C21.8196 92.3366 21.7356 92.1872 21.6802 92.0237C21.6249 91.8601 21.5993 91.6857 21.6054 91.5107C21.6054 91.34 21.6352 91.1709 21.6933 91.0132C21.7513 90.8554 21.8363 90.7121 21.9435 90.5914C22.0508 90.4706 22.1781 90.3748 22.3181 90.3095C22.4583 90.2442 22.6084 90.2106 22.7601 90.2106H27.0014C35.573 90.3356 51.4724 90.5356 56.0025 89.0854C60.8878 87.5101 65.5511 84.8597 70.0367 82.2844C74.5223 79.709 78.7858 77.3086 83.4935 75.6333C93.9085 71.9828 107.476 74.1581 112.117 85.4098C113.96 89.8855 113.983 94.8614 114.027 99.6871C114.071 104.513 114.071 109.813 116.247 113.914C118.424 118.015 123.153 121.016 128.261 121.215C132.657 121.39 137.343 119.84 142.184 116.564C143.849 115.439 145.67 114.04 146.492 111.989C147.736 108.914 146.514 105.488 145.204 101.887C144.294 99.3372 143.361 96.7114 143.161 93.9862C142.694 86.8851 147.603 80.9591 152.398 78.4587C157.573 75.7334 163.369 75.5833 168.831 75.6583C182.422 75.8834 199.876 77.3836 214.509 87.2601C217.174 89.0354 219.727 91.1107 222.214 93.136C226.945 96.9619 231.43 100.587 236.693 102.588C243.113 104.999 250.09 104.724 256.345 101.812C262.652 98.8372 267.959 93.211 273.066 87.7852C279.551 80.9091 286.256 73.808 295.161 71.8828C306.286 69.4574 316.301 75.4583 325.984 81.2592C329.27 83.2095 332.356 85.0597 335.488 86.5851C345.124 91.3107 366.199 90.7356 380.166 90.3606C383.653 90.2606 386.65 90.1855 389.137 90.1855C389.444 90.1855 389.737 90.3226 389.953 90.5664C390.17 90.8102 390.292 91.1409 390.292 91.4858C390.292 91.6565 390.262 91.8256 390.204 91.9834C390.145 92.1411 390.061 92.2844 389.953 92.4051C389.846 92.5259 389.719 92.6217 389.579 92.687C389.439 92.7523 389.289 92.7859 389.137 92.7859C386.672 92.7859 383.674 92.861 380.211 92.961C365.221 93.361 344.658 93.9111 334.554 88.9854C331.357 87.4101 328.071 85.4348 324.895 83.5345C315.568 77.9587 305.909 72.1828 295.583 74.4332C287.345 76.2334 281.193 82.7594 274.643 89.6855C269.38 95.261 263.94 101.037 257.233 104.213C250.463 107.363 242.912 107.664 235.96 105.063C230.364 102.938 225.523 99.0117 220.86 95.2366C218.417 93.261 215.908 91.2107 213.332 89.4855C199.164 79.9339 182.089 78.4838 168.809 78.2838C163.59 78.2087 158.106 78.3587 153.376 80.8341C149.29 82.9845 145.071 87.9352 145.47 93.8111C145.626 96.1363 146.514 98.5867 147.358 100.937C148.779 104.888 150.244 108.989 148.602 113.089C147.514 115.789 145.337 117.49 143.383 118.815C138.409 122.166 133.568 123.866 128.949 123.866Z" fill="white"/>
<path d="M1.07031 18.7946V8.94415H4.0958C5.83135 8.94415 7.10722 9.38508 7.92339 10.2669C8.74895 11.1488 9.16173 12.359 9.16173 13.8975C9.16173 15.4079 8.74895 16.604 7.92339 17.4859C7.10722 18.3583 5.83135 18.7946 4.0958 18.7946H1.07031ZM2.25236 17.8095H4.06766C5.02455 17.8095 5.78444 17.6547 6.34733 17.3452C6.91959 17.0262 7.32768 16.5759 7.57159 15.9942C7.81551 15.4032 7.93747 14.7043 7.93747 13.8975C7.93747 13.0719 7.81551 12.3637 7.57159 11.7726C7.32768 11.1816 6.91959 10.7266 6.34733 10.4076C5.78444 10.0887 5.02455 9.9292 4.06766 9.9292H2.25236V17.8095ZM13.1201 18.9634C12.5384 18.9634 12.0553 18.8649 11.6706 18.6679C11.286 18.4709 10.9999 18.2082 10.8122 17.8799C10.6246 17.5515 10.5308 17.1951 10.5308 16.8104C10.5308 16.0974 10.8029 15.5486 11.347 15.164C11.8911 14.7794 12.6322 14.587 13.5704 14.587H15.456V14.5026C15.456 13.8928 15.2965 13.4331 14.9776 13.1235C14.6586 12.8046 14.2317 12.6451 13.697 12.6451C13.2373 12.6451 12.8386 12.7624 12.5009 12.9969C12.1725 13.2221 11.9661 13.5551 11.8817 13.996H10.6715C10.7184 13.4894 10.8873 13.0626 11.1781 12.7155C11.4783 12.3683 11.8489 12.1057 12.2898 11.9274C12.7307 11.7398 13.1998 11.646 13.697 11.646C14.6727 11.646 15.4044 11.9087 15.8922 12.434C16.3895 12.95 16.6381 13.6395 16.6381 14.5026V18.7946H15.5827L15.5123 17.5422C15.3153 17.9362 15.0245 18.2739 14.6398 18.5554C14.2646 18.8274 13.758 18.9634 13.1201 18.9634ZM13.303 17.9643C13.7533 17.9643 14.1379 17.8471 14.4569 17.6125C14.7852 17.378 15.0339 17.0731 15.2027 16.6978C15.3716 16.3226 15.456 15.9286 15.456 15.5158V15.5017H13.6689C12.9746 15.5017 12.4821 15.6237 12.1913 15.8676C11.9099 16.1021 11.7691 16.3976 11.7691 16.7541C11.7691 17.12 11.9005 17.4155 12.1632 17.6407C12.4352 17.8564 12.8152 17.9643 13.303 17.9643ZM18.9651 21.8904L20.696 18.1191H20.2879L17.5157 11.8148H18.7962L21.1041 17.2467L23.5526 11.8148H24.7769L20.2034 21.8904H18.9651ZM30.79 18.7946V10.2669L29.1999 10.6187V9.80255L31.184 8.94415H31.9862V18.7946H30.79Z" fill="white"/>
<path d="M373.509 130.433V120.582H376.534C378.27 120.582 379.546 121.023 380.362 121.905C381.187 122.787 381.6 123.997 381.6 125.536C381.6 127.046 381.187 128.242 380.362 129.124C379.546 129.996 378.27 130.433 376.534 130.433H373.509ZM374.691 129.448H376.506C377.463 129.448 378.223 129.293 378.786 128.983C379.358 128.664 379.766 128.214 380.01 127.632C380.254 127.041 380.376 126.342 380.376 125.536C380.376 124.71 380.254 124.002 380.01 123.411C379.766 122.82 379.358 122.365 378.786 122.046C378.223 121.727 377.463 121.567 376.506 121.567H374.691V129.448ZM385.558 130.602C384.977 130.602 384.493 130.503 384.109 130.306C383.724 130.109 383.438 129.846 383.25 129.518C383.063 129.19 382.969 128.833 382.969 128.449C382.969 127.736 383.241 127.187 383.785 126.802C384.329 126.417 385.07 126.225 386.009 126.225H387.894V126.141C387.894 125.531 387.735 125.071 387.416 124.762C387.097 124.443 386.67 124.283 386.135 124.283C385.675 124.283 385.277 124.4 384.939 124.635C384.611 124.86 384.404 125.193 384.32 125.634H383.11C383.157 125.128 383.325 124.701 383.616 124.354C383.916 124.006 384.287 123.744 384.728 123.566C385.169 123.378 385.638 123.284 386.135 123.284C387.111 123.284 387.843 123.547 388.33 124.072C388.828 124.588 389.076 125.278 389.076 126.141V130.433H388.021L387.95 129.18C387.753 129.574 387.463 129.912 387.078 130.193C386.703 130.466 386.196 130.602 385.558 130.602ZM385.741 129.602C386.191 129.602 386.576 129.485 386.895 129.251C387.223 129.016 387.472 128.711 387.641 128.336C387.81 127.961 387.894 127.567 387.894 127.154V127.14H386.107C385.413 127.14 384.92 127.262 384.629 127.506C384.348 127.74 384.207 128.036 384.207 128.392C384.207 128.758 384.339 129.054 384.601 129.279C384.873 129.495 385.253 129.602 385.741 129.602ZM391.404 133.529L393.135 129.757H392.727L389.954 123.453H391.235L393.543 128.885L395.991 123.453H397.215L392.642 133.529H391.404ZM406.719 130.433V128.322H401.723V127.407L406.508 120.582H407.887V127.281H409.35V128.322H407.887V130.433H406.719ZM403.032 127.281H406.775V121.891L403.032 127.281Z" fill="white"/>
<path d="M4.56049 46.1806C3.78997 46.1806 3.11451 46.0455 2.53411 45.7753C1.95372 45.5051 1.49841 45.1198 1.16819 44.6195C0.84797 44.1192 0.682859 43.5238 0.672852 42.8333H2.35399C2.364 43.3937 2.55913 43.869 2.93939 44.2593C3.31964 44.6496 3.85501 44.8447 4.54548 44.8447C5.15589 44.8447 5.63121 44.6996 5.97144 44.4094C6.32168 44.1092 6.4968 43.729 6.4968 43.2686C6.4968 42.8983 6.41174 42.5981 6.24162 42.368C6.08151 42.1379 5.85636 41.9477 5.56617 41.7976C5.28597 41.6475 4.96076 41.5124 4.59051 41.3924C4.22025 41.2723 3.82999 41.1421 3.41971 41.0021C2.60916 40.7319 1.99875 40.3817 1.58847 39.9514C1.1882 39.521 0.988065 38.9557 0.988065 38.2552C0.978055 37.6649 1.11315 37.1494 1.39334 36.7092C1.68353 36.2689 2.08381 35.9286 2.59415 35.6885C3.11451 35.4383 3.71992 35.3132 4.41038 35.3132C5.09084 35.3132 5.68625 35.4383 6.19659 35.6885C6.71695 35.9387 7.12222 36.2889 7.41242 36.7392C7.70261 37.1795 7.85271 37.6949 7.86272 38.2852H6.18158C6.18158 38.0151 6.11153 37.7599 5.97144 37.5197C5.83135 37.2695 5.62621 37.0644 5.35602 36.9043C5.08584 36.7442 4.75562 36.6641 4.36535 36.6641C3.86502 36.6541 3.44973 36.7793 3.11951 37.0394C2.7993 37.2995 2.63918 37.6598 2.63918 38.1201C2.63918 38.5304 2.75927 38.8456 2.99943 39.0658C3.23959 39.286 3.56981 39.471 3.9901 39.6212C4.41038 39.7612 4.89071 39.9263 5.43108 40.1165C5.95143 40.2866 6.41675 40.4917 6.82702 40.7319C7.2373 40.9721 7.56252 41.2873 7.80268 41.6775C8.05286 42.0678 8.17794 42.5631 8.17794 43.1636C8.17794 43.6939 8.04284 44.1892 7.77266 44.6496C7.50248 45.0999 7.0972 45.4701 6.55684 45.7603C6.01647 46.0405 5.35102 46.1806 4.56049 46.1806ZM13.3398 46.1806C12.6093 46.1806 11.9589 46.0205 11.3885 45.7003C10.8281 45.37 10.3878 44.9148 10.0676 44.3343C9.74734 43.7539 9.5873 43.0785 9.5873 42.308C9.5873 41.5274 9.74237 40.8419 10.0526 40.2516C10.3728 39.6612 10.8131 39.2009 11.3735 38.8706C11.9439 38.5404 12.6043 38.3753 13.3549 38.3753C14.0853 38.3753 14.7208 38.5404 15.2611 38.8706C15.8015 39.1908 16.2218 39.6212 16.522 40.1615C16.8222 40.7019 16.9723 41.2973 16.9723 41.9477C16.9723 42.0478 16.9672 42.1579 16.9573 42.278C16.9573 42.388 16.9522 42.5131 16.9423 42.6532H11.1484C11.1984 43.3737 11.4335 43.9241 11.8538 44.3043C12.2841 44.6746 12.7794 44.8597 13.3398 44.8597C13.7901 44.8597 14.1654 44.7596 14.4656 44.5595C14.7758 44.3494 15.006 44.0691 15.1561 43.7189H16.7471C16.547 44.4194 16.1467 45.0048 15.5463 45.4751C14.9559 45.9454 14.2204 46.1806 13.3398 46.1806ZM13.3398 39.6812C12.8094 39.6812 12.3391 39.8413 11.9289 40.1615C11.5185 40.4718 11.2684 40.942 11.1784 41.5725H15.3812C15.3512 40.992 15.146 40.5318 14.7658 40.1915C14.3855 39.8513 13.9102 39.6812 13.3398 39.6812ZM22.1505 46.1806C21.42 46.1806 20.7646 46.0155 20.1842 45.6853C19.6138 45.355 19.1635 44.8998 18.8333 44.3193C18.5131 43.729 18.353 43.0484 18.353 42.278C18.353 41.5075 18.5131 40.832 18.8333 40.2516C19.1635 39.6612 19.6138 39.2009 20.1842 38.8706C20.7646 38.5404 21.42 38.3753 22.1505 38.3753C23.0711 38.3753 23.8417 38.6155 24.4621 39.0958C25.0925 39.5761 25.4978 40.2265 25.6779 41.0471H24.0118C23.9117 40.6369 23.6916 40.3166 23.3513 40.0865C23.0111 39.8563 22.6109 39.7412 22.1505 39.7412C21.7603 39.7412 21.4 39.8413 21.0698 40.0414C20.7396 40.2316 20.4744 40.5168 20.2743 40.897C20.0742 41.2673 19.9741 41.7275 19.9741 42.278C19.9741 42.8284 20.0742 43.2937 20.2743 43.6739C20.4744 44.0442 20.7396 44.3294 21.0698 44.5295C21.4 44.7296 21.7603 44.8297 22.1505 44.8297C22.6109 44.8297 23.0111 44.7146 23.3513 44.4844C23.6916 44.2543 23.9117 43.9291 24.0118 43.5088H25.6779C25.5078 44.3093 25.1075 44.9547 24.4771 45.4451C23.8467 45.9355 23.0711 46.1806 22.1505 46.1806ZM27.4035 46.0005V38.5554H28.8295L28.9646 39.9664C29.2247 39.476 29.585 39.0908 30.0453 38.8106C30.5156 38.5204 31.081 38.3753 31.7415 38.3753V40.0414H31.3062C30.8658 40.0414 30.4706 40.1165 30.1204 40.2666C29.7801 40.4067 29.5049 40.6519 29.2948 41.0021C29.0946 41.3423 28.9946 41.8176 28.9946 42.4281V46.0005H27.4035ZM36.3828 46.1806C35.6523 46.1806 35.0019 46.0205 34.4315 45.7003C33.871 45.37 33.4308 44.9148 33.1106 44.3343C32.7903 43.7539 32.6303 43.0785 32.6303 42.308C32.6303 41.5274 32.7853 40.8419 33.0956 40.2516C33.4158 39.6612 33.856 39.2009 34.4165 38.8706C34.9869 38.5404 35.6473 38.3753 36.3978 38.3753C37.1282 38.3753 37.7637 38.5404 38.3041 38.8706C38.8445 39.1908 39.2647 39.6212 39.565 40.1615C39.8652 40.7019 40.0153 41.2973 40.0153 41.9477C40.0153 42.0478 40.0102 42.1579 40.0002 42.278C40.0002 42.388 39.9952 42.5131 39.9852 42.6532H34.1913C34.2413 43.3737 34.4765 43.9241 34.8968 44.3043C35.327 44.6746 35.8224 44.8597 36.3828 44.8597C36.8331 44.8597 37.2084 44.7596 37.5086 44.5595C37.8187 44.3494 38.0489 44.0691 38.199 43.7189H39.7901C39.5899 44.4194 39.1897 45.0048 38.5893 45.4751C37.9988 45.9454 37.2633 46.1806 36.3828 46.1806ZM36.3828 39.6812C35.8524 39.6812 35.3821 39.8413 34.9718 40.1615C34.5615 40.4718 34.3114 40.942 34.2213 41.5725H38.4242C38.3942 40.992 38.189 40.5318 37.8088 40.1915C37.4284 39.8513 36.9532 39.6812 36.3828 39.6812ZM44.5977 46.0005C43.8671 46.0005 43.2867 45.8253 42.8565 45.4751C42.4262 45.1149 42.2111 44.4795 42.2111 43.5688V39.8913H40.9352V38.5554H42.2111L42.4062 36.6641H43.8021V38.5554H45.9036V39.8913H43.8021V43.5688C43.8021 43.9791 43.8871 44.2643 44.0573 44.4244C44.2374 44.5745 44.5426 44.6496 44.9729 44.6496H45.8285V46.0005H44.5977ZM51.386 46.0005V35.4934H52.9771V44.7396H57.7503V46.0005H51.386ZM61.9245 46.1806C61.294 46.1806 60.7737 46.0755 60.3634 45.8654C59.9531 45.6552 59.6479 45.3801 59.4478 45.0398C59.2476 44.6896 59.1476 44.3093 59.1476 43.899C59.1476 43.1786 59.4277 42.6082 59.9882 42.1879C60.5485 41.7676 61.349 41.5575 62.3898 41.5575H64.3411V41.4224C64.3411 40.8419 64.181 40.4067 63.8608 40.1165C63.5505 39.8263 63.1453 39.6812 62.645 39.6812C62.2046 39.6812 61.8194 39.7912 61.4892 40.0114C61.1689 40.2216 60.9738 40.5368 60.9038 40.9571H59.3127C59.3627 40.4167 59.5428 39.9563 59.8531 39.5761C60.1733 39.1859 60.5736 38.8906 61.0539 38.6905C61.5442 38.4804 62.0795 38.3753 62.66 38.3753C63.7006 38.3753 64.5062 38.6505 65.0766 39.2009C65.647 39.7412 65.9322 40.4817 65.9322 41.4224V46.0005H64.5513L64.4162 44.7246C64.206 45.1349 63.9007 45.4801 63.5005 45.7603C63.1002 46.0405 62.5749 46.1806 61.9245 46.1806ZM62.2397 44.8897C62.6699 44.8897 63.0302 44.7896 63.3204 44.5895C63.6206 44.3794 63.8507 44.1042 64.0109 43.764C64.181 43.4237 64.286 43.0484 64.3261 42.6382H62.5549C61.9245 42.6382 61.4742 42.7482 61.204 42.9684C60.9437 43.1886 60.8137 43.4638 60.8137 43.794C60.8137 44.1342 60.9388 44.4044 61.189 44.6045C61.4491 44.7947 61.7993 44.8897 62.2397 44.8897ZM70.8344 43.7189C70.4442 43.7189 70.0839 43.6739 69.7537 43.5838L69.1082 44.2143C69.2183 44.2843 69.3534 44.3444 69.5135 44.3944C69.6736 44.4444 69.8987 44.4894 70.189 44.5295C70.4791 44.5695 70.8744 44.6095 71.3748 44.6496C72.3655 44.7396 73.0809 44.9798 73.5212 45.37C73.9615 45.7503 74.1817 46.2606 74.1817 46.9011C74.1817 47.3413 74.0616 47.7567 73.8214 48.1469C73.5912 48.5472 73.226 48.8674 72.7257 49.1076C72.2353 49.3578 71.6049 49.4828 70.8344 49.4828C69.7937 49.4828 68.9481 49.2827 68.2977 48.8824C67.6572 48.4922 67.337 47.8967 67.337 47.0962C67.337 46.786 67.4171 46.4758 67.5772 46.1656C67.7473 45.8654 68.0125 45.5802 68.3727 45.31C68.1626 45.2199 67.9774 45.1249 67.8174 45.0248C67.6673 44.9148 67.5322 44.8046 67.4121 44.6946V44.3343L68.703 43.0134C68.1226 42.5131 67.8324 41.8577 67.8324 41.0471C67.8324 40.5568 67.9474 40.1115 68.1776 39.7112C68.4178 39.301 68.763 38.9757 69.2133 38.7356C69.6636 38.4954 70.204 38.3753 70.8344 38.3753C71.2547 38.3753 71.645 38.4353 72.0052 38.5554H74.7821V39.6061L73.4612 39.6812C73.7014 40.0914 73.8214 40.5468 73.8214 41.0471C73.8214 41.5474 73.7014 41.9977 73.4612 42.398C73.231 42.7983 72.8908 43.1185 72.4405 43.3587C72.0001 43.5988 71.4648 43.7189 70.8344 43.7189ZM70.8344 42.4731C71.2947 42.4731 71.6649 42.353 71.9452 42.1128C72.2353 41.8626 72.3805 41.5124 72.3805 41.0621C72.3805 40.6018 72.2353 40.2516 71.9452 40.0114C71.6649 39.7713 71.2947 39.6512 70.8344 39.6512C70.364 39.6512 69.9838 39.7713 69.6936 40.0114C69.4134 40.2516 69.2734 40.6018 69.2734 41.0621C69.2734 41.5124 69.4134 41.8626 69.6936 42.1128C69.9838 42.353 70.364 42.4731 70.8344 42.4731ZM68.8381 46.9461C68.8381 47.3764 69.0281 47.6966 69.4084 47.9068C69.7887 48.1269 70.264 48.237 70.8344 48.237C71.3847 48.237 71.8301 48.1169 72.1703 47.8767C72.5105 47.6466 72.6807 47.3364 72.6807 46.9461C72.6807 46.6559 72.5656 46.4057 72.3354 46.1956C72.1052 45.9955 71.6699 45.8704 71.0295 45.8203C70.5492 45.7903 70.1239 45.7453 69.7537 45.6853C69.4034 45.8754 69.1632 46.0805 69.0332 46.3007C68.9031 46.5209 68.8381 46.736 68.8381 46.9461ZM79.3904 46.1806C78.6799 46.1806 78.0395 46.0205 77.4691 45.7003C76.9088 45.37 76.4634 44.9148 76.1332 44.3343C75.803 43.744 75.6379 43.0585 75.6379 42.278C75.6379 41.4974 75.803 40.817 76.1332 40.2366C76.4734 39.6462 76.9287 39.1908 77.4991 38.8706C78.0695 38.5404 78.7049 38.3753 79.4054 38.3753C80.1159 38.3753 80.7514 38.5404 81.3117 38.8706C81.8821 39.1908 82.3324 39.6462 82.6626 40.2366C83.0029 40.817 83.173 41.4974 83.173 42.278C83.173 43.0585 83.0029 43.744 82.6626 44.3343C82.3324 44.9148 81.8821 45.37 81.3117 45.7003C80.7413 46.0205 80.1008 46.1806 79.3904 46.1806ZM79.3904 44.8147C79.7706 44.8147 80.1209 44.7196 80.4411 44.5295C80.7713 44.3393 81.0365 44.0592 81.2366 43.6889C81.4368 43.3087 81.5369 42.8383 81.5369 42.278C81.5369 41.7176 81.4368 41.2523 81.2366 40.882C81.0465 40.5018 80.7863 40.2166 80.4561 40.0264C80.1359 39.8363 79.7856 39.7412 79.4054 39.7412C79.0252 39.7412 78.6699 39.8363 78.3397 40.0264C78.0195 40.2166 77.7593 40.5018 77.5592 40.882C77.3591 41.2523 77.259 41.7176 77.259 42.278C77.259 42.8383 77.3591 43.3087 77.5592 43.6889C77.7593 44.0592 78.0195 44.3393 78.3397 44.5295C78.6599 44.7196 79.0102 44.8147 79.3904 44.8147ZM88.376 46.1806C87.6655 46.1806 87.025 46.0205 86.4547 45.7003C85.8943 45.37 85.449 44.9148 85.1188 44.3343C84.7885 43.744 84.6234 43.0585 84.6234 42.278C84.6234 41.4974 84.7885 40.817 85.1188 40.2366C85.459 39.6462 85.9143 39.1908 86.4847 38.8706C87.0551 38.5404 87.6906 38.3753 88.391 38.3753C89.1015 38.3753 89.7369 38.5404 90.2973 38.8706C90.8676 39.1908 91.3179 39.6462 91.6482 40.2366C91.9884 40.817 92.1585 41.4974 92.1585 42.278C92.1585 43.0585 91.9884 43.744 91.6482 44.3343C91.3179 44.9148 90.8676 45.37 90.2973 45.7003C89.7269 46.0205 89.0865 46.1806 88.376 46.1806ZM88.376 44.8147C88.7563 44.8147 89.1065 44.7196 89.4267 44.5295C89.7569 44.3393 90.0221 44.0592 90.2222 43.6889C90.4224 43.3087 90.5224 42.8383 90.5224 42.278C90.5224 41.7176 90.4224 41.2523 90.2222 40.882C90.0321 40.5018 89.7719 40.2166 89.4417 40.0264C89.1215 39.8363 88.7713 39.7412 88.391 39.7412C88.0107 39.7412 87.6555 39.8363 87.3252 40.0264C87.0051 40.2166 86.7449 40.5018 86.5447 40.882C86.3446 41.2523 86.2445 41.7176 86.2445 42.278C86.2445 42.8383 86.3446 43.3087 86.5447 43.6889C86.7449 44.0592 87.0051 44.3393 87.3252 44.5295C87.6455 44.7196 87.9957 44.8147 88.376 44.8147ZM93.8794 46.0005V38.5554H95.2904L95.4105 39.8613C95.6403 39.401 95.9752 39.0407 96.4162 38.7806C96.8665 38.5104 97.3815 38.3753 97.9622 38.3753C98.8628 38.3753 99.5683 38.6555 100.079 39.2159C100.598 39.7762 100.859 40.6118 100.859 41.7226V46.0005H99.2831V41.8877C99.2831 40.4467 98.6921 39.7262 97.5119 39.7262C96.9209 39.7262 96.4312 39.9364 96.0409 40.3566C95.66 40.7769 95.4705 41.3773 95.4705 42.1579V46.0005H93.8794Z" fill="white"/>
<path d="M291.788 157.819C290.797 157.819 289.931 157.594 289.191 157.143C288.451 156.693 287.875 156.063 287.465 155.252C287.055 154.441 286.85 153.496 286.85 152.415C286.85 151.345 287.06 150.399 287.48 149.578C287.9 148.757 288.496 148.117 289.266 147.657C290.047 147.187 290.967 146.951 292.028 146.951C293.229 146.951 294.23 147.241 295.03 147.822C295.83 148.403 296.351 149.203 296.591 150.224H294.79C294.63 149.664 294.314 149.223 293.844 148.903C293.374 148.583 292.768 148.422 292.028 148.422C290.928 148.422 290.062 148.778 289.431 149.488C288.801 150.198 288.486 151.18 288.486 152.43C288.486 153.681 288.796 154.656 289.416 155.357C290.036 156.058 290.862 156.408 291.893 156.408C292.933 156.408 293.714 156.112 294.235 155.522C294.765 154.932 295.075 154.146 295.165 153.166H292.313V151.935H296.771V157.639H295.315L295.18 156.093C294.83 156.643 294.389 157.068 293.859 157.368C293.329 157.669 292.639 157.819 291.788 157.819ZM301.389 157.819C300.488 157.819 299.778 157.538 299.257 156.978C298.747 156.418 298.492 155.582 298.492 154.471V150.194H300.083V154.306C300.083 155.747 300.674 156.468 301.854 156.468C302.445 156.468 302.93 156.258 303.31 155.837C303.691 155.417 303.881 154.817 303.881 154.036V150.194H305.472V157.639H304.061L303.941 156.333C303.711 156.793 303.37 157.158 302.92 157.428C302.48 157.688 301.97 157.819 301.389 157.819ZM307.496 157.639V146.831H309.087V157.639H307.496ZM311.102 157.639V146.831H312.693V157.639H311.102ZM315.083 157.639V151.529H314.017V150.194H315.083V149.113C315.083 148.302 315.284 147.722 315.683 147.372C316.094 147.011 316.669 146.831 317.409 146.831H318.19V148.182H317.65C317.3 148.182 317.049 148.257 316.899 148.407C316.749 148.547 316.674 148.787 316.674 149.128V150.194H318.385V151.529H316.674V157.639H315.083ZM323.086 157.819C322.376 157.819 321.735 157.658 321.165 157.338C320.605 157.008 320.159 156.553 319.829 155.972C319.499 155.382 319.333 154.697 319.333 153.916C319.333 153.136 319.499 152.455 319.829 151.875C320.169 151.285 320.624 150.829 321.195 150.509C321.765 150.179 322.4 150.013 323.101 150.013C323.811 150.013 324.447 150.179 325.007 150.509C325.578 150.829 326.028 151.285 326.358 151.875C326.699 152.455 326.869 153.136 326.869 153.916C326.869 154.697 326.699 155.382 326.358 155.972C326.028 156.553 325.578 157.008 325.007 157.338C324.437 157.658 323.796 157.819 323.086 157.819ZM323.086 156.453C323.466 156.453 323.817 156.358 324.137 156.168C324.467 155.977 324.732 155.698 324.932 155.327C325.132 154.947 325.232 154.476 325.232 153.916C325.232 153.356 325.132 152.891 324.932 152.52C324.742 152.14 324.482 151.855 324.152 151.665C323.832 151.474 323.481 151.379 323.101 151.379C322.721 151.379 322.366 151.474 322.035 151.665C321.715 151.855 321.455 152.14 321.255 152.52C321.055 152.891 320.955 153.356 320.955 153.916C320.955 154.476 321.055 154.947 321.255 155.327C321.455 155.698 321.715 155.977 322.035 156.168C322.355 156.358 322.706 156.453 323.086 156.453ZM331.561 157.819C330.621 157.819 329.845 157.589 329.235 157.128C328.625 156.668 328.274 156.058 328.184 155.297H329.79C329.871 155.638 330.06 155.932 330.36 156.183C330.661 156.423 331.056 156.543 331.546 156.543C332.026 156.543 332.377 156.442 332.597 156.243C332.817 156.043 332.927 155.812 332.927 155.552C332.927 155.172 332.772 154.917 332.462 154.787C332.162 154.647 331.741 154.521 331.201 154.411C330.781 154.321 330.36 154.201 329.94 154.051C329.53 153.901 329.185 153.691 328.904 153.421C328.634 153.14 328.499 152.765 328.499 152.295C328.499 151.645 328.75 151.105 329.25 150.674C329.751 150.234 330.45 150.013 331.351 150.013C332.182 150.013 332.852 150.213 333.362 150.614C333.883 151.014 334.188 151.579 334.278 152.31H332.747C332.697 151.99 332.547 151.74 332.297 151.56C332.056 151.379 331.732 151.289 331.321 151.289C330.921 151.289 330.611 151.375 330.39 151.544C330.171 151.705 330.06 151.915 330.06 152.175C330.06 152.435 330.21 152.64 330.51 152.79C330.821 152.94 331.226 153.076 331.726 153.196C332.227 153.305 332.687 153.436 333.107 153.586C333.538 153.726 333.883 153.936 334.143 154.216C334.404 154.497 334.533 154.907 334.533 155.447C334.543 156.127 334.278 156.693 333.738 157.143C333.208 157.594 332.482 157.819 331.561 157.819ZM339.243 157.819C338.302 157.819 337.526 157.589 336.916 157.128C336.305 156.668 335.955 156.058 335.865 155.297H337.471C337.551 155.638 337.742 155.932 338.042 156.183C338.342 156.423 338.737 156.543 339.228 156.543C339.708 156.543 340.058 156.442 340.278 156.243C340.498 156.043 340.609 155.812 340.609 155.552C340.609 155.172 340.453 154.917 340.143 154.787C339.843 154.647 339.423 154.521 338.882 154.411C338.462 154.321 338.042 154.201 337.622 154.051C337.211 153.901 336.865 153.691 336.586 153.421C336.316 153.14 336.181 152.765 336.181 152.295C336.181 151.645 336.43 151.105 336.931 150.674C337.431 150.234 338.132 150.013 339.032 150.013C339.863 150.013 340.533 150.213 341.044 150.614C341.564 151.014 341.869 151.579 341.959 152.31H340.428C340.378 151.99 340.228 151.74 339.978 151.56C339.738 151.379 339.412 151.289 339.002 151.289C338.602 151.289 338.291 151.375 338.072 151.544C337.851 151.705 337.742 151.915 337.742 152.175C337.742 152.435 337.892 152.64 338.192 152.79C338.501 152.94 338.907 153.076 339.408 153.196C339.908 153.305 340.368 153.436 340.789 153.586C341.218 153.726 341.564 153.936 341.824 154.216C342.084 154.497 342.215 154.907 342.215 155.447C342.224 156.127 341.959 156.693 341.419 157.143C340.888 157.594 340.163 157.819 339.243 157.819ZM349.94 157.654L347.103 147.132H348.814L350.901 155.837L353.302 147.132H355.059L357.385 155.837L359.472 147.132H361.183L358.301 157.639H356.44L354.143 149.398L351.771 157.639L349.94 157.654ZM364.312 157.819C363.682 157.819 363.161 157.714 362.751 157.504C362.341 157.293 362.036 157.019 361.836 156.678C361.636 156.328 361.536 155.947 361.536 155.537C361.536 154.817 361.816 154.246 362.376 153.826C362.936 153.406 363.737 153.196 364.778 153.196H366.729V153.061C366.729 152.48 366.569 152.045 366.249 151.755C365.938 151.465 365.533 151.319 365.033 151.319C364.593 151.319 364.207 151.429 363.877 151.65C363.557 151.86 363.362 152.175 363.292 152.595H361.701C361.75 152.055 361.93 151.594 362.241 151.214C362.561 150.824 362.961 150.528 363.442 150.329C363.932 150.119 364.467 150.013 365.048 150.013C366.088 150.013 366.894 150.288 367.465 150.839C368.035 151.379 368.32 152.12 368.32 153.061V157.639H366.939L366.804 156.363C366.594 156.773 366.289 157.118 365.888 157.398C365.488 157.679 364.963 157.819 364.312 157.819ZM364.628 156.528C365.058 156.528 365.418 156.427 365.708 156.228C366.009 156.018 366.238 155.743 366.399 155.402C366.569 155.062 366.674 154.686 366.714 154.276H364.943C364.312 154.276 363.862 154.386 363.592 154.607C363.332 154.827 363.202 155.102 363.202 155.432C363.202 155.773 363.326 156.043 363.577 156.243C363.837 156.433 364.188 156.528 364.628 156.528ZM373.151 157.639C372.42 157.639 371.84 157.463 371.409 157.113C370.979 156.753 370.764 156.118 370.764 155.207V151.529H369.488V150.194H370.764L370.959 148.302H372.355V150.194H374.456V151.529H372.355V155.207C372.355 155.617 372.44 155.902 372.61 156.063C372.79 156.213 373.095 156.288 373.526 156.288H374.381V157.639H373.151ZM379.389 157.819C378.658 157.819 378.008 157.658 377.438 157.338C376.877 157.008 376.437 156.553 376.117 155.972C375.796 155.392 375.637 154.716 375.637 153.946C375.637 153.166 375.791 152.48 376.102 151.89C376.422 151.3 376.862 150.839 377.423 150.509C377.993 150.179 378.654 150.013 379.404 150.013C380.134 150.013 380.77 150.179 381.31 150.509C381.851 150.829 382.271 151.259 382.571 151.8C382.872 152.34 383.022 152.936 383.022 153.586C383.022 153.686 383.016 153.796 383.007 153.916C383.007 154.026 383.001 154.152 382.992 154.291H377.198C377.247 155.012 377.483 155.563 377.903 155.942C378.333 156.313 378.828 156.498 379.389 156.498C379.839 156.498 380.215 156.397 380.515 156.198C380.825 155.988 381.055 155.707 381.205 155.357H382.797C382.596 156.058 382.196 156.643 381.596 157.113C381.005 157.583 380.269 157.819 379.389 157.819ZM379.389 151.319C378.858 151.319 378.388 151.48 377.978 151.8C377.567 152.11 377.318 152.58 377.228 153.211H381.431C381.401 152.63 381.195 152.17 380.815 151.83C380.434 151.489 379.96 151.319 379.389 151.319ZM384.673 157.639V150.194H386.099L386.234 151.605C386.494 151.114 386.854 150.729 387.315 150.449C387.785 150.159 388.35 150.013 389.011 150.013V151.68H388.575C388.135 151.68 387.74 151.755 387.39 151.905C387.049 152.045 386.774 152.29 386.564 152.64C386.363 152.981 386.264 153.455 386.264 154.066V157.639H384.673ZM390.75 157.639V151.529H389.684V150.194H390.75V149.113C390.75 148.302 390.95 147.722 391.35 147.372C391.76 147.011 392.335 146.831 393.077 146.831H393.857V148.182H393.317C392.966 148.182 392.716 148.257 392.566 148.407C392.416 148.547 392.341 148.787 392.341 149.128V150.194H394.052V151.529H392.341V157.639H390.75ZM397.792 157.819C397.161 157.819 396.641 157.714 396.231 157.504C395.821 157.293 395.516 157.019 395.315 156.678C395.115 156.328 395.015 155.947 395.015 155.537C395.015 154.817 395.295 154.246 395.855 153.826C396.416 153.406 397.217 153.196 398.257 153.196H400.208V153.061C400.208 152.48 400.049 152.045 399.728 151.755C399.418 151.465 399.013 151.319 398.512 151.319C398.072 151.319 397.687 151.429 397.356 151.65C397.036 151.86 396.841 152.175 396.771 152.595H395.18C395.231 152.055 395.411 151.594 395.72 151.214C396.041 150.824 396.441 150.528 396.921 150.329C397.412 150.119 397.947 150.013 398.527 150.013C399.569 150.013 400.373 150.288 400.944 150.839C401.514 151.379 401.799 152.12 401.799 153.061V157.639H400.418L400.283 156.363C400.073 156.773 399.768 157.118 399.368 157.398C398.968 157.679 398.443 157.819 397.792 157.819ZM398.107 156.528C398.537 156.528 398.898 156.427 399.188 156.228C399.488 156.018 399.719 155.743 399.878 155.402C400.049 155.062 400.154 154.686 400.193 154.276H398.422C397.792 154.276 397.341 154.386 397.071 154.607C396.811 154.827 396.681 155.102 396.681 155.432C396.681 155.773 396.807 156.043 397.056 156.243C397.317 156.433 397.667 156.528 398.107 156.528ZM403.655 157.639V146.831H405.246V157.639H403.655ZM407.261 157.639V146.831H408.852V157.639H407.261Z" fill="white"/>
<path d="M11.285 100.881C16.7252 100.881 21.1354 96.4712 21.1354 91.031C21.1354 85.5907 16.7252 81.1805 11.285 81.1805C5.84476 81.1805 1.43457 85.5907 1.43457 91.031C1.43457 96.4712 5.84476 100.881 11.285 100.881Z" stroke="white" stroke-width="2.81441"/>
<path d="M11.2851 96.6598C14.3938 96.6598 16.9139 94.1397 16.9139 91.031C16.9139 87.9223 14.3938 85.4022 11.2851 85.4022C8.17636 85.4022 5.65625 87.9223 5.65625 91.031C5.65625 94.1397 8.17636 96.6598 11.2851 96.6598Z" fill="white"/>
<path d="M172.644 82.5878C175.753 82.5878 178.273 80.0677 178.273 76.959C178.273 73.8502 175.753 71.3301 172.644 71.3301C169.536 71.3301 167.016 73.8502 167.016 76.959C167.016 80.0677 169.536 82.5878 172.644 82.5878Z" fill="white"/>
<path d="M274.901 92.9073C278.01 92.9073 280.53 90.3872 280.53 87.2785C280.53 84.1698 278.01 81.6497 274.901 81.6497C271.793 81.6497 269.272 84.1698 269.272 87.2785C269.272 90.3872 271.793 92.9073 274.901 92.9073Z" fill="white"/>
<path d="M398.735 100.881C404.175 100.881 408.586 96.4712 408.586 91.031C408.586 85.5907 404.175 81.1805 398.735 81.1805C393.295 81.1805 388.885 85.5907 388.885 91.031C388.885 96.4712 393.295 100.881 398.735 100.881Z" stroke="white" stroke-width="2.81441"/>
<path d="M398.735 96.6598C401.844 96.6598 404.364 94.1397 404.364 91.031C404.364 87.9223 401.844 85.4022 398.735 85.4022C395.627 85.4022 393.106 87.9223 393.106 91.031C393.106 94.1397 395.627 96.6598 398.735 96.6598Z" fill="white"/>
</g>
<defs>
<clipPath id="clip0_2103_9318">
<rect width="409.965" height="166.05" fill="white" transform="translate(0.0273438 0.969971)"/>
</clipPath>
</defs>
</svg>
