<svg width="60" height="62" viewBox="0 0 60 62" fill="none" xmlns="http://www.w3.org/2000/svg">
<g clip-path="url(#clip0_2103_8946)">
<g clip-path="url(#clip1_2103_8946)">
<path fill-rule="evenodd" clip-rule="evenodd" d="M26.5992 49.5503C16.109 47.7744 8.10742 38.6336 8.10742 27.6393C8.10742 15.3744 18.0649 5.41699 30.3298 5.41699C42.5947 5.41699 52.5521 15.3744 52.5521 27.6393C52.5521 38.6336 44.5506 47.7744 34.0604 49.5503L30.3298 57.9432L26.5992 49.5503ZM30.3298 19.559C34.7895 19.559 38.4113 23.1796 38.4113 27.6393C38.4113 32.099 34.7895 35.7209 30.3298 35.7209C25.8701 35.7209 22.2483 32.099 22.2483 27.6393C22.2483 23.1796 25.8701 19.559 30.3298 19.559Z" fill="#FDF0EA"/>
<path fill-rule="evenodd" clip-rule="evenodd" d="M35.8828 23.5117C36.6898 24.6333 37.1661 26.0099 37.1661 27.4968C37.1661 31.2681 34.1033 34.3309 30.3321 34.3309C26.5608 34.3309 23.498 31.2681 23.498 27.4968C23.498 23.7256 26.5608 20.6628 30.3321 20.6628C31.439 20.6628 32.4849 20.9267 33.4095 21.3949C34.0254 21.7065 34.7795 21.4596 35.0912 20.8429C35.4028 20.227 35.1559 19.4736 34.5392 19.162C33.275 18.5218 31.8454 18.1609 30.3321 18.1609C25.179 18.1609 20.9961 22.3438 20.9961 27.4968C20.9961 32.6499 25.179 36.8328 30.3321 36.8328C35.4851 36.8328 39.668 32.6499 39.668 27.4968C39.668 25.4646 39.0176 23.583 37.9136 22.0498C37.5101 21.4889 36.7273 21.3618 36.1672 21.7653C35.6064 22.1688 35.4793 22.9509 35.8828 23.5117Z" fill="#EB662B"/>
<path fill-rule="evenodd" clip-rule="evenodd" d="M12.3678 38.5114C10.3 35.2622 9.10248 31.4072 9.10248 27.2756C9.10248 15.7066 18.4966 6.31244 30.0656 6.31244C41.6346 6.31244 51.0288 15.7066 51.0288 27.2756C51.0288 37.6471 43.4824 46.2698 33.5854 47.9439C33.1735 48.0145 32.8221 48.2852 32.6525 48.6688L30.0656 54.4887L27.4788 48.6688C27.3092 48.2852 26.9578 48.0145 26.5458 47.9439C23.1997 47.3784 20.1243 46.0174 17.5173 44.0647C16.966 43.6507 16.1804 43.7638 15.7665 44.3151C15.3545 44.8684 15.4656 45.6519 16.0189 46.0659C18.7632 48.1216 21.974 49.5917 25.4635 50.2863C25.4615 50.2863 28.9227 58.0731 28.9227 58.0731C29.1246 58.5254 29.5709 58.8162 30.0656 58.8162C30.5604 58.8162 31.0067 58.5254 31.2086 58.0731L34.6698 50.2863C45.4169 48.1458 53.5287 38.6507 53.5287 27.2756C53.5287 14.3253 43.0159 3.8125 30.0656 3.8125C17.1154 3.8125 6.60254 14.3253 6.60254 27.2756C6.60254 31.902 7.94537 36.2174 10.2596 39.8543C10.6311 40.4359 11.4046 40.6075 11.9862 40.238C12.5677 39.8664 12.7394 39.093 12.3678 38.5114Z" fill="#EB662B"/>
<path d="M13.7584 43.607C14.4491 43.607 15.0091 43.047 15.0091 42.3563C15.0091 41.6656 14.4491 41.1057 13.7584 41.1057C13.0677 41.1057 12.5078 41.6656 12.5078 42.3563C12.5078 43.047 13.0677 43.607 13.7584 43.607Z" fill="#EB662B"/>
</g>
</g>
<defs>
<clipPath id="clip0_2103_8946">
<rect width="60" height="61" fill="white" transform="translate(0 0.360107)"/>
</clipPath>
<clipPath id="clip1_2103_8946">
<rect width="60" height="61" fill="white" transform="translate(0 0.360107)"/>
</clipPath>
</defs>
</svg>
