<svg width="60" height="62" viewBox="0 0 60 62" fill="none" xmlns="http://www.w3.org/2000/svg">
<g clip-path="url(#clip0_2103_8955)">
<g clip-path="url(#clip1_2103_8955)">
<path fill-rule="evenodd" clip-rule="evenodd" d="M9.2927 55.3355C6.29432 54.8278 4.00684 52.2152 4.00684 49.0725C4.00684 45.5665 6.85333 42.72 10.3593 42.72C13.8653 42.72 16.7118 45.5665 16.7118 49.0725C16.7118 52.2152 14.4243 54.8278 11.426 55.3355L10.3593 57.735L9.2927 55.3355Z" fill="#FDF0EA"/>
<path fill-rule="evenodd" clip-rule="evenodd" d="M49.1004 17.8355C46.102 17.3278 43.8145 14.7152 43.8145 11.5725C43.8145 8.06647 46.661 5.21997 50.167 5.21997C53.673 5.21997 56.5195 8.06647 56.5195 11.5725C56.5195 14.7152 54.2321 17.3278 51.2337 17.8355L50.167 20.235L49.1004 17.8355Z" fill="#FDF0EA"/>
<path fill-rule="evenodd" clip-rule="evenodd" d="M8.40629 56.4223L9.21536 58.2431C9.41633 58.6947 9.86448 58.9864 10.3588 58.9864C10.8532 58.9864 11.3013 58.6947 11.5023 58.2431L12.3113 56.4223C15.5627 55.5601 17.9628 52.5946 17.9628 49.0724C17.9628 44.8757 14.5555 41.4685 10.3588 41.4685C6.16213 41.4685 2.75488 44.8757 2.75488 49.0724C2.75488 52.594 5.15496 55.5595 8.40629 56.4223ZM10.3588 54.6817C10.1717 54.3756 9.85987 54.1625 9.50124 54.1019C7.09307 53.6942 5.25776 51.5961 5.25776 49.0724C5.25776 46.2571 7.54351 43.9714 10.3588 43.9714C13.1741 43.9714 15.4599 46.2571 15.4599 49.0724C15.4599 51.5961 13.6246 53.6942 11.2164 54.1019C10.8578 54.1625 10.5459 54.3756 10.3588 54.6817Z" fill="#EB662B"/>
<path fill-rule="evenodd" clip-rule="evenodd" d="M50.1674 17.1817C49.9803 16.8756 49.6685 16.6625 49.3098 16.6019C46.9017 16.1942 45.0664 14.0961 45.0664 11.5724C45.0664 8.75713 47.3521 6.47138 50.1674 6.47138C50.7605 6.47138 51.3299 6.57246 51.8601 6.75899C52.5115 6.98826 53.2264 6.6458 53.4557 5.99438C53.685 5.34296 53.3425 4.62801 52.6911 4.39816C51.9011 4.12038 51.0516 3.96851 50.1674 3.96851C45.9707 3.96851 42.5635 7.37575 42.5635 11.5724C42.5635 15.0946 44.9641 18.0601 48.2155 18.9229L49.024 20.7431C49.2249 21.1947 49.6731 21.4864 50.1674 21.4864C50.6618 21.4864 51.1099 21.1947 51.3109 20.7431L52.12 18.9223C55.3713 18.0601 57.7714 15.0946 57.7714 11.5724C57.7714 10.0213 57.3059 8.57868 56.5072 7.37517C56.1255 6.79998 55.3482 6.64233 54.773 7.02463C54.1978 7.40636 54.0401 8.18309 54.4219 8.75886C54.9572 9.56563 55.2685 10.5329 55.2685 11.5724C55.2685 14.0961 53.4332 16.1942 51.025 16.6019C50.6664 16.6625 50.3545 16.8756 50.1674 17.1817Z" fill="#EB662B"/>
<path fill-rule="evenodd" clip-rule="evenodd" d="M19.1645 58.7888H21.6658C22.3561 58.7888 22.9164 58.2285 22.9164 57.5382C22.9164 56.8478 22.3561 56.2875 21.6658 56.2875H19.1645C18.4742 56.2875 17.9139 56.8478 17.9139 57.5382C17.9139 58.2285 18.4742 58.7888 19.1645 58.7888ZM29.1695 58.7888H38.5492C45.1112 58.7888 50.4302 53.4699 50.4302 46.9079C50.4302 43.7563 49.1783 40.7348 46.9509 38.5062C44.7223 36.2788 41.7008 35.0269 38.5492 35.0269C32.5937 35.0269 25.2838 35.0269 19.7898 35.0269C17.9652 35.0269 16.2156 34.3028 14.9262 33.0122C13.6355 31.7228 12.9114 29.9731 12.9114 28.1485C12.9114 26.3238 13.6355 24.5742 14.9262 23.2848C16.2156 21.9942 17.9652 21.27 19.7898 21.27H21.6658C22.3561 21.27 22.9164 20.7098 22.9164 20.0194C22.9164 19.3291 22.3561 18.7688 21.6658 18.7688H19.7898C17.3024 18.7688 14.9162 19.7568 13.1578 21.5164C11.3982 23.2748 10.4102 25.661 10.4102 28.1485C10.4102 30.636 11.3982 33.0222 13.1578 34.7805C14.9162 36.5402 17.3024 37.5282 19.7898 37.5282H38.5492C41.0367 37.5282 43.4229 38.5162 45.1813 40.2758C46.9409 42.0342 47.9289 44.4204 47.9289 46.9079C47.9289 52.0879 43.7293 56.2875 38.5492 56.2875H29.1695C28.4792 56.2875 27.9189 56.8478 27.9189 57.5382C27.9189 58.2285 28.4792 58.7888 29.1695 58.7888ZM25.4177 21.27H41.6758C42.3661 21.27 42.9264 20.7098 42.9264 20.0194C42.9264 19.3291 42.3661 18.7688 41.6758 18.7688H25.4177C24.7273 18.7688 24.167 19.3291 24.167 20.0194C24.167 20.7098 24.7273 21.27 25.4177 21.27Z" fill="#EB662B"/>
<path d="M25.0066 58.7849C25.6973 58.7849 26.2572 58.225 26.2572 57.5343C26.2572 56.8436 25.6973 56.2837 25.0066 56.2837C24.3159 56.2837 23.7559 56.8436 23.7559 57.5343C23.7559 58.225 24.3159 58.7849 25.0066 58.7849Z" fill="#EB662B"/>
</g>
</g>
<defs>
<clipPath id="clip0_2103_8955">
<rect width="60" height="61" fill="white" transform="translate(0 0.360107)"/>
</clipPath>
<clipPath id="clip1_2103_8955">
<rect width="60" height="61" fill="white" transform="translate(0 0.360107)"/>
</clipPath>
</defs>
</svg>
