<svg width="60" height="62" viewBox="0 0 60 62" fill="none" xmlns="http://www.w3.org/2000/svg">
<g clip-path="url(#clip0_2103_8966)">
<g clip-path="url(#clip1_2103_8966)">
<path d="M29.9702 57.2682C44.4749 57.2682 56.2333 45.5098 56.2333 31.0051C56.2333 16.5003 44.4749 4.74194 29.9702 4.74194C15.4654 4.74194 3.70703 16.5003 3.70703 31.0051C3.70703 45.5098 15.4654 57.2682 29.9702 57.2682Z" fill="white"/>
<path d="M29.9698 32.2556C35.4954 32.2556 39.9748 27.7762 39.9748 22.2506C39.9748 16.725 35.4954 12.2456 29.9698 12.2456C24.4442 12.2456 19.9648 16.725 19.9648 22.2506C19.9648 27.7762 24.4442 32.2556 29.9698 32.2556Z" fill="#FDF0EA"/>
<path fill-rule="evenodd" clip-rule="evenodd" d="M50.3852 48.9187C45.9205 52.4255 36.487 57.6731 30.3752 57.6731C24.2634 57.6731 14.83 52.4255 10.3652 48.9187C11.2694 40.8234 21.951 37.6631 30.3752 37.6631C38.7994 37.6631 49.481 40.8234 50.3852 48.9187Z" fill="#FDF0EA"/>
<path d="M4.2196 37.519C4.90988 37.519 5.46947 36.9594 5.46947 36.2691C5.46947 35.5789 4.90988 35.0193 4.2196 35.0193C3.52932 35.0193 2.96973 35.5789 2.96973 36.2691C2.96973 36.9594 3.52932 37.519 4.2196 37.519Z" fill="#EB662B"/>
<path fill-rule="evenodd" clip-rule="evenodd" d="M8.66425 48.3034C6.81707 45.9347 5.35006 43.2572 4.35332 40.3607C4.1282 39.7079 4.47587 38.9963 5.1287 38.7712C5.78027 38.5473 6.49312 38.8937 6.71824 39.5465C7.45736 41.6951 8.48167 43.7111 9.7448 45.5495C14.8123 39.943 22.161 36.4125 30.3751 36.4125C38.5892 36.4125 45.9378 39.943 51.0054 45.5495C53.7692 41.5263 55.3876 36.6564 55.3876 31.41C55.3876 27.1991 54.3445 23.2296 52.5036 19.7466C52.1809 19.1363 52.4149 18.3785 53.0252 18.0558C53.6355 17.7344 54.3921 17.967 54.7147 18.5773C56.7407 22.4092 57.8888 26.7764 57.8888 31.41C57.8888 37.7782 55.7215 43.6436 52.0834 48.3072C52.0709 48.3247 52.0572 48.3422 52.0434 48.3585C47.0059 54.7892 39.1695 58.9237 30.3751 58.9237C21.5819 58.9237 13.7481 54.7904 8.70928 48.3622C8.69427 48.3434 8.678 48.3234 8.66425 48.3034ZM49.4571 47.5743C44.8386 42.2717 38.0189 38.9137 30.3751 38.9137C22.7313 38.9137 15.9116 42.2717 11.293 47.5743C15.8828 52.9858 22.7313 56.4225 30.3751 56.4225C38.0189 56.4225 44.8673 52.9858 49.4571 47.5743ZM5.39006 32.6018C5.42257 33.2909 4.88985 33.8775 4.19951 33.91C3.51041 33.9425 2.92389 33.4085 2.89262 32.7194C2.87136 32.2854 2.86133 31.849 2.86133 31.41C2.86133 16.2249 15.19 3.89624 30.3751 3.89624C39.5284 3.89624 47.645 8.37599 52.6475 15.2607C53.0527 15.8197 52.9289 16.6026 52.3711 17.0078C51.8121 17.413 51.0291 17.2892 50.6239 16.7314C46.0754 10.4708 38.698 6.39749 30.3751 6.39749C16.5707 6.39749 5.36258 17.6056 5.36258 31.41C5.36258 31.8089 5.37255 32.2066 5.39006 32.6018ZM30.3751 11.4C36.5869 11.4 41.6307 16.4438 41.6307 22.6556C41.6307 28.8675 36.5869 33.9112 30.3751 33.9112C24.1632 33.9112 19.1195 28.8675 19.1195 22.6556C19.1195 16.4438 24.1632 11.4 30.3751 11.4ZM30.3751 13.9012C25.5439 13.9012 21.6207 17.8244 21.6207 22.6556C21.6207 27.4868 25.5439 31.41 30.3751 31.41C35.2062 31.41 39.1295 27.4868 39.1295 22.6556C39.1295 17.8244 35.2062 13.9012 30.3751 13.9012Z" fill="#EB662B"/>
</g>
</g>
<defs>
<clipPath id="clip0_2103_8966">
<rect width="60" height="61" fill="white" transform="translate(0 0.360107)"/>
</clipPath>
<clipPath id="clip1_2103_8966">
<rect width="60" height="61" fill="white" transform="translate(0 0.360107)"/>
</clipPath>
</defs>
</svg>
