<svg width="60" height="62" viewBox="0 0 60 62" fill="none" xmlns="http://www.w3.org/2000/svg">
<g clip-path="url(#clip0_2103_8976)">
<g clip-path="url(#clip1_2103_8976)">
<path fill-rule="evenodd" clip-rule="evenodd" d="M40.906 30.6121L40.4395 35.4907C40.4308 35.5595 40.4258 35.6296 40.4258 35.6983C40.4258 36.5063 41.0899 37.1703 41.8965 37.1703H45.2907C46.0986 37.1703 46.7627 36.5063 46.7627 35.6983C46.7627 35.6296 46.7577 35.5595 46.7477 35.4907L46.0599 30.6833C45.1844 30.9535 41.7815 30.8822 40.906 30.6121Z" fill="#FDF0EA"/>
<path fill-rule="evenodd" clip-rule="evenodd" d="M43.5928 10.0144C42.2147 10.0207 40.8527 10.3371 39.5871 10.9449L35.6201 28.3298C37.5436 31.0437 40.4838 32.6357 43.5928 32.6457C49.1794 32.6457 53.7767 27.5369 53.7767 21.3301C53.7767 15.1232 49.1794 10.0144 43.5928 10.0144Z" fill="white"/>
<path fill-rule="evenodd" clip-rule="evenodd" d="M27.2065 28.4385L26.5299 33.1708C26.5187 33.2459 26.5137 33.3234 26.5137 33.3997C26.5137 34.2914 27.2478 35.0268 28.1395 35.0268H31.8914C32.7831 35.0268 33.5172 34.2914 33.5172 33.3997C33.5172 33.3234 33.5122 33.2459 33.5009 33.1708L32.8594 28.6811C31.8914 28.98 28.1745 28.7374 27.2065 28.4385Z" fill="white"/>
<path fill-rule="evenodd" clip-rule="evenodd" d="M13.8491 31.53L13.2826 35.4908C13.2726 35.5596 13.2676 35.6296 13.2676 35.6984C13.2676 36.5063 13.9317 37.1704 14.7396 37.1704H18.1338C18.9404 37.1704 19.6045 36.5063 19.6045 35.6984C19.6045 35.6296 19.5995 35.5596 19.5907 35.4908L19.0517 31.7264C18.1763 31.9965 17.1095 31.2712 16.2003 31.2749C15.2923 31.2712 14.7246 31.8002 13.8491 31.53Z" fill="#FDF0EA"/>
<path fill-rule="evenodd" clip-rule="evenodd" d="M16.4368 10.0144C10.8502 10.0144 6.25293 15.122 6.25293 21.3288C6.25293 27.5357 10.8502 32.6457 16.4368 32.6457C19.5508 32.6445 22.4986 31.0574 24.4283 28.3411L20.4563 10.9374C19.1869 10.3296 17.8187 10.0157 16.4368 10.0144Z" fill="white"/>
<path fill-rule="evenodd" clip-rule="evenodd" d="M41.271 17.5182C41.271 24.3791 36.1897 30.0245 30.0154 30.0245C23.8411 30.0245 18.7598 24.3791 18.7598 17.5182C18.7598 10.6573 23.8411 5.01196 30.0154 5.01196C36.1897 5.01196 41.271 10.6573 41.271 17.5182Z" fill="#FDF0EA"/>
<path d="M30.0144 3.76123C25.8574 3.76123 22.2105 5.98484 19.9432 9.37404C18.8138 8.97384 17.6295 8.76498 16.4364 8.76373C10.0607 8.76373 5.00195 14.4716 5.00195 21.3288C5.00195 23.1872 5.36964 24.9568 6.03247 26.5514C6.2976 27.1879 7.02921 27.4893 7.66703 27.2254C8.3036 26.9603 8.60625 26.2287 8.34112 25.5909C7.8046 24.3002 7.5032 22.857 7.5032 21.3288C7.5032 15.6884 11.5627 11.265 16.4364 11.265C17.2093 11.2662 17.9759 11.39 18.7225 11.6139C17.9434 13.4098 17.5082 15.4133 17.5082 17.5181C17.5082 22.0291 19.5054 26.0786 22.6082 28.5974C20.9437 30.3958 18.7376 31.395 16.4364 31.395C15.0307 31.395 13.71 31.0324 12.5232 30.3783C11.9179 30.0444 11.1563 30.2645 10.8224 30.8698C10.4884 31.4751 10.7098 32.2367 11.3163 32.5694C11.6553 32.7557 12.0054 32.9233 12.3644 33.0734L12.0442 35.3145C11.8141 36.9315 13.1047 38.421 14.7381 38.4223H15.3446C16.8228 42.7832 16.0762 44.908 15.2458 47.4643C14.3991 50.0756 13.4662 53.1784 15.2658 57.9783C15.5084 58.6236 16.2288 58.9501 16.8754 58.7087C17.5219 58.4661 17.8509 57.7457 17.6082 57.0979C16.0137 52.8445 16.7753 50.8573 17.6258 48.2347C18.4124 45.8072 19.2641 42.8645 17.9697 38.4223H18.1335C19.7668 38.421 21.0575 36.9315 20.8273 35.3145L20.5047 33.0659C22.098 32.398 23.5375 31.3438 24.7193 29.9806C25.0257 30.1382 25.3396 30.2795 25.6598 30.4108L25.2908 32.9921V32.9946C25.047 34.7042 26.4114 36.2762 28.1385 36.2775H28.9051C30.5897 41.1862 29.7468 43.5986 28.8251 46.4438C27.8884 49.329 26.8666 52.7032 28.8439 57.9783C29.0865 58.6199 29.8118 58.9488 30.4547 58.7087C31.0962 58.4661 31.4251 57.7407 31.185 57.0979C29.4104 52.3693 30.2646 50.1144 31.2038 47.2154C32.0842 44.5016 33.0322 41.2562 31.534 36.2775H31.8904C33.6175 36.2762 34.9819 34.7042 34.7381 32.9946V32.9921L34.3666 30.4033C34.6905 30.2707 35.0057 30.1206 35.3146 29.9606C36.4914 31.3275 37.9371 32.3705 39.5254 33.0434L39.2015 35.3145C38.9714 36.9315 40.2621 38.421 41.8954 38.4223H42.5032C43.5562 41.5301 43.4474 43.4936 43.0334 45.2957C42.6082 47.1504 41.7441 48.8938 41.4527 51.2512C41.3689 51.9315 41.8591 52.5606 42.5407 52.6457C43.221 52.7294 43.8501 52.2392 43.9351 51.5589C44.1665 49.6842 44.9682 48.0496 45.4709 45.8548C45.9224 43.8875 46.0337 41.5138 45.127 38.4223H45.2908C46.9241 38.421 48.2148 36.9315 47.9847 35.3145L47.662 33.0634C51.9904 31.2462 55.0282 26.6377 55.0269 21.3288C55.0269 14.4716 49.9682 8.76373 43.5925 8.76373H43.5887C42.3931 8.76874 41.2075 8.98134 40.0782 9.38654C37.8108 5.9961 34.1728 3.76123 30.0144 3.76123ZM30.0144 6.26248C35.4797 6.26248 40.0194 11.22 40.0194 17.5181C40.0194 23.8162 35.4797 28.7737 30.0144 28.7737C24.5492 28.7737 20.0094 23.8162 20.0094 17.5181C20.0094 11.22 24.5492 6.26248 30.0144 6.26248ZM43.5925 11.265C48.4662 11.265 52.5257 15.6884 52.5257 21.3288C52.5269 26.9678 48.4699 31.3913 43.5975 31.395C41.2938 31.3875 39.0865 30.3795 37.4256 28.5711C40.5222 26.0549 42.5207 22.0229 42.5207 17.5181C42.5207 15.412 42.0742 13.4135 41.2951 11.6164C42.043 11.3875 42.8158 11.2687 43.5925 11.265ZM28.0872 31.1086C28.715 31.2162 29.3579 31.275 30.0144 31.275C30.671 31.275 31.3138 31.2174 31.9417 31.1111L32.2618 33.346C32.2968 33.5949 32.1418 33.7762 31.8904 33.7762H28.1385C27.8884 33.7762 27.7333 33.5961 27.7671 33.3485V33.346L28.0872 31.1086ZM41.9542 33.745C42.4919 33.8325 43.0359 33.8938 43.5887 33.8963H43.5925C44.1528 33.8963 44.698 33.8363 45.2345 33.7512L45.5084 35.6672C45.5297 35.8222 45.4459 35.921 45.2883 35.921H41.8954C41.7391 35.921 41.6565 35.8235 41.6778 35.6697V35.6672L41.9542 33.745ZM18.0772 33.7587L18.3511 35.6672C18.3736 35.8222 18.2911 35.921 18.1335 35.921H14.7406C14.5842 35.921 14.5004 35.8235 14.5204 35.6697V35.6672L14.7943 33.7612C15.3309 33.8463 15.8786 33.8963 16.4364 33.8963C16.9904 33.8963 17.537 33.845 18.0772 33.7587ZM43.0022 53.8275C42.8721 53.8125 42.7396 53.8187 42.6107 53.845C42.0317 53.9638 41.6127 54.4791 41.6127 55.0694C41.6127 55.1544 41.6215 55.2394 41.639 55.3232C41.8091 56.1487 42.0642 57.0291 42.4206 57.9783C42.6032 58.4648 43.071 58.7887 43.5912 58.7887C43.7425 58.7887 43.8914 58.7612 44.0327 58.7087C44.6743 58.4661 45.0032 57.7407 44.7631 57.0979C44.4479 56.2575 44.2303 55.5033 44.089 54.8167C43.9789 54.2877 43.5387 53.8875 43.0022 53.8275Z" fill="#EB662B"/>
<path fill-rule="evenodd" clip-rule="evenodd" d="M10.2402 29.062C10.2402 29.752 9.68023 30.312 8.99023 30.312C8.30023 30.312 7.74023 29.752 7.74023 29.062C7.74023 28.372 8.30023 27.812 8.99023 27.812C9.68023 27.812 10.2402 28.372 10.2402 29.062Z" fill="#EB662B"/>
</g>
</g>
<defs>
<clipPath id="clip0_2103_8976">
<rect width="60" height="61" fill="white" transform="translate(0 0.360107)"/>
</clipPath>
<clipPath id="clip1_2103_8976">
<rect width="60" height="61" fill="white" transform="translate(0 0.360107)"/>
</clipPath>
</defs>
</svg>
