<svg width="61" height="61" viewBox="0 0 61 61" fill="none" xmlns="http://www.w3.org/2000/svg">
<g clip-path="url(#clip0_2103_8891)">
<g clip-path="url(#clip1_2103_8891)">
<path fill-rule="evenodd" clip-rule="evenodd" d="M28.7258 55.3419C29.0685 55.8876 29.6685 56.2202 30.3138 56.2202C30.959 56.2202 31.559 55.8876 31.9017 55.3419C36.9768 47.2502 52.6709 22.2259 56.273 16.4822C56.7126 15.7807 56.6403 14.8737 56.0942 14.2501C54.0286 11.8926 49.0736 6.2345 47.4036 4.32754C47.0473 3.92258 46.5331 3.68872 45.9931 3.68872C41.3662 3.68872 19.2613 3.68872 14.6345 3.68872C14.0945 3.68872 13.5802 3.92258 13.224 4.32754C11.5539 6.2345 6.59885 11.8926 4.53333 14.2501C3.98726 14.8737 3.91502 15.7807 4.35458 16.4822C7.95668 22.2259 23.6508 47.2502 28.7258 55.3419Z" fill="#FDF0EA"/>
<path fill-rule="evenodd" clip-rule="evenodd" d="M4.14844 15.3173H56.5021C56.4258 15.0673 56.297 14.8309 56.1169 14.6246C54.0509 12.2672 49.0921 6.60802 47.4213 4.70082C47.0661 4.29436 46.5508 4.06177 46.0106 4.06177C41.3833 4.06177 19.2673 4.06177 14.64 4.06177C14.0996 4.06177 13.5845 4.29436 13.2293 4.70082C11.5584 6.60802 6.59965 12.2672 4.53363 14.6246C4.35354 14.8309 4.22472 15.0673 4.14844 15.3173Z" fill="white"/>
<path fill-rule="evenodd" clip-rule="evenodd" d="M22.8217 15.3173L30.3256 4.06177H14.6401C14.4613 4.06177 14.2851 4.08678 14.1162 4.1368L22.8217 15.3173ZM30.3256 4.06177L37.8293 15.3173L46.5348 4.1368C46.3661 4.08678 46.1897 4.06177 46.0109 4.06177H30.3256Z" fill="#FDF0EA"/>
<path fill-rule="evenodd" clip-rule="evenodd" d="M37.8297 15.3173H22.8223L30.326 4.06177L37.8297 15.3173Z" fill="white"/>
<path fill-rule="evenodd" clip-rule="evenodd" d="M30.326 56.603L22.8223 15.3174H37.8297L30.326 56.603Z" fill="white"/>
<path fill-rule="evenodd" clip-rule="evenodd" d="M15.3157 49.1217L16.7965 51.3937L19.0684 52.8743L16.7965 54.3538L15.3157 56.6257L13.8364 54.3538L11.5645 52.8743L13.8364 51.3937L15.3157 49.1217Z" fill="#FDF0EA"/>
<path fill-rule="evenodd" clip-rule="evenodd" d="M7.81577 34.1217L9.29655 36.3937L11.5684 37.8743L9.29655 39.3538L7.81577 41.6257L6.3363 39.3538L4.06445 37.8743L6.3363 36.3937L7.81577 34.1217Z" fill="#FDF0EA"/>
<path fill-rule="evenodd" clip-rule="evenodd" d="M51.5648 40.3712L53.0456 42.6431L55.3174 44.1239L53.0456 45.6033L51.5648 47.8752L50.0853 45.6033L47.8135 44.1239L50.0853 42.6431L51.5648 40.3712Z" fill="#FDF0EA"/>
<path d="M23.444 48.2742C24.1347 48.2742 24.6946 47.7143 24.6946 47.0236C24.6946 46.3329 24.1347 45.7729 23.444 45.7729C22.7533 45.7729 22.1934 46.3329 22.1934 47.0236C22.1934 47.7143 22.7533 48.2742 23.444 48.2742Z" fill="#EB662B"/>
<path fill-rule="evenodd" clip-rule="evenodd" d="M5.64992 16.568H21.7867L28.824 53.5102L26.6279 50.0097C26.2615 49.4245 25.4886 49.2482 24.9046 49.6145C24.3192 49.981 24.1429 50.7538 24.5094 51.3379C24.5094 51.3379 26.8631 55.091 27.6772 56.3891C28.2487 57.3009 29.2492 57.8536 30.326 57.8536C31.4028 57.8536 32.4032 57.3009 32.9748 56.3891L57.3558 17.5222C58.0898 16.3529 57.9685 14.8396 57.0581 13.8004C54.992 11.443 50.0346 5.78387 48.3637 3.87667C47.7697 3.20008 46.913 2.81116 46.0114 2.81116H14.6407C13.7389 2.81116 12.8822 3.20008 12.2882 3.87667C10.6174 5.78387 5.65992 11.443 3.59388 13.8004C2.68343 14.8396 2.56212 16.3529 3.29624 17.5222L20.3735 44.7459C20.7412 45.3311 21.5129 45.5074 22.0981 45.1411C22.6822 44.7746 22.8598 44.0018 22.4933 43.4177L5.64992 16.568ZM53.9665 14.0668L46.7767 5.86143L40.3885 14.0668H49.0854C49.7758 14.0668 50.336 14.6271 50.336 15.3175C50.336 16.0077 49.7758 16.568 49.0854 16.568H38.8652L31.828 53.5102L55.0021 16.568H52.8372C52.147 16.568 51.5867 16.0077 51.5867 15.3175C51.5867 14.6271 52.147 14.0668 52.8372 14.0668H53.9665ZM36.319 16.568H24.333L30.326 48.0287L36.319 16.568ZM6.68543 14.0668H20.2634L13.8752 5.86143L6.68543 14.0668ZM25.1597 14.0668H35.4923L30.326 6.31667L25.1597 14.0668ZM44.0341 5.3124H32.6634L37.9086 13.18L44.0341 5.3124ZM27.9886 5.3124H16.618L22.7435 13.18L27.9886 5.3124Z" fill="#EB662B"/>
<path fill-rule="evenodd" clip-rule="evenodd" d="M16.3633 48.4387C16.133 48.0846 15.7394 47.8713 15.3155 47.8713C14.893 47.8713 14.4995 48.0846 14.2678 48.4387L12.9319 50.4894L10.8811 51.8268C10.527 52.0571 10.3125 52.4507 10.3125 52.8745C10.3125 53.297 10.527 53.6905 10.8811 53.9222L12.9319 55.2582L14.2678 57.309C14.4995 57.663 14.893 57.8775 15.3155 57.8775C15.7394 57.8775 16.133 57.663 16.3633 57.309L17.7007 55.2582L19.7513 53.9222C20.1055 53.6905 20.3186 53.297 20.3186 52.8745C20.3186 52.4507 20.1055 52.0571 19.7513 51.8268L17.7007 50.4894L16.3633 48.4387ZM15.3155 51.4121L15.7486 52.0769C15.8434 52.2216 15.9685 52.3466 16.1132 52.4414L16.778 52.8745L16.1132 53.3061C15.9685 53.4009 15.8434 53.526 15.7486 53.6721L15.3155 54.3355L14.8838 53.6721C14.7891 53.526 14.6641 53.4009 14.5179 53.3061L13.8545 52.8745L14.5179 52.4414C14.6641 52.3466 14.7891 52.2216 14.8838 52.0769L15.3155 51.4121Z" fill="#EB662B"/>
<path fill-rule="evenodd" clip-rule="evenodd" d="M8.8633 33.4387C8.63296 33.0846 8.2394 32.8713 7.81556 32.8713C7.39306 32.8713 6.99949 33.0846 6.76783 33.4387L5.43184 35.4894L3.38112 36.8268C3.02705 37.0571 2.8125 37.4507 2.8125 37.8745C2.8125 38.297 3.02705 38.6905 3.38112 38.9222L5.43184 40.2582L6.76783 42.309C6.99949 42.663 7.39306 42.8775 7.81556 42.8775C8.2394 42.8775 8.63296 42.663 8.8633 42.309L10.2006 40.2582L12.2513 38.9222C12.6055 38.6905 12.8186 38.297 12.8186 37.8745C12.8186 37.4507 12.6055 37.0571 12.2513 36.8268L10.2006 35.4894L8.8633 33.4387ZM7.81556 36.4121L8.24861 37.0769C8.34338 37.2216 8.46842 37.3466 8.61322 37.4414L9.27792 37.8745L8.61322 38.3061C8.46842 38.4009 8.34338 38.526 8.24861 38.6721L7.81556 39.3355L7.38384 38.6721C7.28906 38.526 7.16402 38.4009 7.01792 38.3061L6.35453 37.8745L7.01792 37.4414C7.16402 37.3466 7.28906 37.2216 7.38384 37.0769L7.81556 36.4121Z" fill="#EB662B"/>
<path fill-rule="evenodd" clip-rule="evenodd" d="M52.6124 39.688C52.382 39.3338 51.9884 39.1206 51.5646 39.1206C51.142 39.1206 50.7486 39.3338 50.5168 39.688L49.1809 41.7386L47.1302 43.0759C46.7761 43.3063 46.5615 43.6999 46.5615 44.1238C46.5615 44.5463 46.7761 44.9398 47.1302 45.1715L49.1809 46.5074L50.5168 48.5581C50.7486 48.9122 51.142 49.1268 51.5646 49.1268C51.9884 49.1268 52.382 48.9122 52.6124 48.5581L53.9497 46.5074L56.0004 45.1715C56.3545 44.9398 56.5677 44.5463 56.5677 44.1238C56.5677 43.6999 56.3545 43.3063 56.0004 43.0759L53.9497 41.7386L52.6124 39.688ZM51.5646 42.6613L51.9976 43.326C52.0924 43.4708 52.2175 43.5959 52.3623 43.6907L53.027 44.1238L52.3623 44.5554C52.2175 44.6502 52.0924 44.7752 51.9976 44.9214L51.5646 45.5848L51.1329 44.9214C51.0381 44.7752 50.9131 44.6502 50.7669 44.5554L50.1036 44.1238L50.7669 43.6907C50.9131 43.5959 51.0381 43.4708 51.1329 43.326L51.5646 42.6613Z" fill="#EB662B"/>
</g>
</g>
<defs>
<clipPath id="clip0_2103_8891">
<rect width="60" height="60" fill="white" transform="translate(0.310547 0.129883)"/>
</clipPath>
<clipPath id="clip1_2103_8891">
<rect width="60" height="60" fill="white" transform="translate(0.310547 0.129883)"/>
</clipPath>
</defs>
</svg>
