<svg width="61" height="61" viewBox="0 0 61 61" fill="none" xmlns="http://www.w3.org/2000/svg">
<g clip-path="url(#clip0_2103_8875)">
<g clip-path="url(#clip1_2103_8875)">
<path fill-rule="evenodd" clip-rule="evenodd" d="M30.7201 4.01672C21.7406 4.01672 14.4619 11.2954 14.4619 20.2749C14.4707 25.9527 17.4359 31.1728 22.2096 34.103C22.9749 34.5733 23.7791 35.5988 23.9554 36.4792L24.3969 38.6891C24.582 39.6133 25.4012 40.2849 26.3429 40.2849H35.0973C36.039 40.2849 36.8581 39.6133 37.0432 38.6891L37.4847 36.4792C37.661 35.5988 38.4652 34.5733 39.2306 34.1043C44.0042 31.1728 46.9694 25.9527 46.9782 20.2749C46.9782 11.2954 39.6996 4.01672 30.7201 4.01672Z" fill="#FDF0EA"/>
<path fill-rule="evenodd" clip-rule="evenodd" d="M24.3066 48.0763L37.123 48.1413L36.0312 54.6921C35.8536 55.7564 34.9244 56.543 33.8463 56.543H27.5932C26.5152 56.543 25.5859 55.7564 25.4083 54.6921L24.3066 48.0763Z" fill="white"/>
<path fill-rule="evenodd" clip-rule="evenodd" d="M23.8415 45.2874H37.5983C37.9297 45.2874 38.2487 45.4187 38.4825 45.6538C38.7176 45.8877 38.849 46.2066 38.849 46.538V47.7886C38.849 48.4752 38.2849 49.0392 37.5983 49.0392H23.8415C23.51 49.0392 23.1911 48.9079 22.9573 48.6728C22.7221 48.4389 22.5908 48.12 22.5908 47.7886V46.538C22.5908 45.8514 23.1549 45.2874 23.8415 45.2874Z" fill="#FDF0EA"/>
<path fill-rule="evenodd" clip-rule="evenodd" d="M30.7206 4.01672C27.6128 4.01672 25.0928 11.2954 25.0928 20.2749C25.0953 25.9527 26.122 31.1728 27.7753 34.103C28.0392 34.5733 28.3181 35.5988 28.3794 36.4792L28.532 38.6891C28.5958 39.6133 28.8796 40.2849 29.2048 40.2849H32.2363C32.5615 40.2849 32.8454 39.6133 32.9092 38.6891L33.0617 36.4792C33.123 35.5988 33.4019 34.5733 33.6658 34.1043C35.3191 31.1728 36.3459 25.9527 36.3484 20.2749C36.3484 11.2954 33.8284 4.01672 30.7206 4.01672Z" fill="white"/>
<path fill-rule="evenodd" clip-rule="evenodd" d="M12.1338 38.7392C11.4534 38.1426 10.5754 37.7837 9.61621 37.7837C7.45763 37.7837 5.70801 39.6034 5.70801 41.8482C5.70801 44.0931 7.45763 45.9128 9.61621 45.9128H15.0877C16.8148 45.9128 18.2143 44.457 18.2143 42.6611C18.2143 40.8652 16.8148 39.4095 15.0877 39.4095C14.4199 39.4095 13.7996 39.6271 13.2918 39.9986L12.1338 38.7392Z" fill="#FDF0EA"/>
<path fill-rule="evenodd" clip-rule="evenodd" d="M52.4844 30.261C52.9609 29.8433 53.5762 29.592 54.2478 29.592C55.7586 29.592 56.9829 30.8664 56.9829 32.4371C56.9829 34.0079 55.7586 35.2823 54.2478 35.2823H50.4171C49.209 35.2823 48.2285 34.263 48.2285 33.0062C48.2285 31.7493 49.209 30.73 50.4171 30.73C50.8849 30.73 51.3188 30.8826 51.674 31.1427L52.4844 30.261Z" fill="white"/>
<path fill-rule="evenodd" clip-rule="evenodd" d="M23.402 50.2511L24.1762 54.8984C24.4538 56.5618 25.907 57.7936 27.5941 57.7936H33.8472C35.5343 57.7936 36.9876 56.5618 37.2652 54.8984L38.0393 50.2499C39.2049 50.0398 40.1004 49.0105 40.1004 47.7886V46.538C40.1004 45.8752 39.8365 45.2386 39.3675 44.7696C38.8985 44.3006 38.2619 44.0368 37.5991 44.0368H36.9738V40.9327C37.6266 40.4675 38.1044 39.7634 38.2695 38.9342L38.7122 36.7244C38.8285 36.1428 39.38 35.48 39.8853 35.1698C45.0266 32.0133 48.2207 26.3917 48.2294 20.2774V20.2749C48.2294 10.605 40.3905 2.76611 30.7207 2.76611C21.0508 2.76611 13.2119 10.605 13.2119 20.2749V20.2761C13.2132 20.8439 13.2407 21.4055 13.2957 21.9632C13.3633 22.6498 13.9748 23.1526 14.6627 23.085C15.3493 23.0175 15.852 22.406 15.7845 21.7181C15.7382 21.2416 15.7144 20.7601 15.7132 20.2736C15.7132 13.3852 20.3542 7.58227 26.6799 5.81764C25.0041 8.82914 23.8422 14.1718 23.8422 20.2749V20.2761C23.846 26.2091 24.9591 31.6556 26.6849 34.7183C26.8913 35.0823 27.0839 35.8827 27.1314 36.5655L27.284 38.7754C27.2902 38.8642 27.299 38.9505 27.3077 39.0343H26.3435C25.9946 39.0343 25.6919 38.7866 25.6244 38.444L25.1829 36.2341C24.9465 35.0548 23.8898 33.6678 22.8643 33.0375C20.7945 31.7669 19.0924 30.0285 17.8693 28C17.5128 27.4084 16.7424 27.2184 16.1521 27.5748C15.5606 27.9312 15.3705 28.7003 15.7269 29.2919C17.1539 31.6581 19.1399 33.6866 21.5561 35.1698C22.0613 35.48 22.6129 36.1428 22.7292 36.7244L23.1719 38.9342C23.337 39.7634 23.8147 40.4675 24.4676 40.9327V44.0368H23.8422C22.4703 44.0368 21.341 45.1661 21.341 46.538V47.7886C21.341 48.4515 21.6049 49.088 22.0739 49.557C22.4378 49.9209 22.9018 50.1611 23.402 50.2511ZM35.4981 50.2899H35.0566C34.3663 50.2899 33.806 49.7296 33.806 49.0393C33.806 48.3489 34.3663 47.7886 35.0566 47.7886H37.5991V46.6381C37.5191 46.618 37.4053 46.538 37.5991 46.538H23.8422V47.6886C23.9223 47.7086 24.0361 47.7886 23.8422 47.7886H31.0383C31.7274 47.7886 32.289 48.3489 32.289 49.0393C32.289 49.7296 31.7274 50.2899 31.0383 50.2899H25.9433L26.6436 54.487C26.7199 54.9497 27.1251 55.2924 27.5941 55.2924H33.8472C34.3162 55.2924 34.7214 54.9497 34.7977 54.487L35.4981 50.2899ZM29.4701 44.0368V41.5355H26.9688V44.0368H29.4701ZM34.4726 44.0368V41.5355H31.9713V44.0368H34.4726ZM30.7207 5.26736C31.0471 5.26736 31.3385 5.46496 31.6324 5.7476C32.1001 6.19658 32.5241 6.8619 32.913 7.68732C34.2537 10.525 35.0979 15.1085 35.0979 20.2749C35.0954 25.6976 34.1549 30.6901 32.5766 33.489C32.2527 34.0655 31.8888 35.3136 31.815 36.3929L31.6611 38.6028C31.6524 38.7404 31.6236 38.8967 31.5924 39.0343H29.849C29.8177 38.8967 29.789 38.7404 29.7802 38.6028L29.6264 36.3929C29.5526 35.3136 29.1887 34.0655 28.8648 33.489C27.2865 30.6901 26.346 25.6976 26.3435 20.2749C26.3435 15.1085 27.1877 10.525 28.5283 7.68732C28.9173 6.8619 29.3412 6.19658 29.809 5.7476C30.1029 5.46496 30.3943 5.26736 30.7207 5.26736ZM34.7615 5.81764C36.4373 8.82914 37.5991 14.1718 37.5991 20.2749V20.2761C37.5966 26.2091 36.4823 31.6556 34.7564 34.7183C34.5501 35.0823 34.3575 35.8827 34.31 36.5655L34.1574 38.7754C34.1511 38.8642 34.1424 38.9505 34.1336 39.0343H35.0979C35.4468 39.0343 35.7494 38.7866 35.817 38.444L36.2585 36.2341C36.4948 35.0548 37.5516 33.6678 38.5759 33.0375C42.9831 30.3324 45.7194 25.515 45.7282 20.2736C45.7282 13.3864 41.0871 7.58227 34.7615 5.81764Z" fill="#EB662B"/>
<path fill-rule="evenodd" clip-rule="evenodd" d="M13.0551 37.8937C13.0238 37.8599 12.9925 37.8286 12.9588 37.7986C12.0558 37.0082 10.889 36.533 9.61585 36.533C6.78069 36.533 4.45703 38.8992 4.45703 41.8481C4.45703 44.7971 6.78069 47.1633 9.61585 47.1633H15.0873C17.491 47.1633 19.4645 45.161 19.4645 42.661C19.4645 40.161 17.491 38.1588 15.0873 38.1588C14.5496 38.1588 14.0343 38.2588 13.5578 38.4414L13.0551 37.8937ZM11.2629 39.6395L12.371 40.8451C12.8012 41.3141 13.5153 41.3841 14.0293 41.009C14.3295 40.7901 14.6934 40.66 15.0873 40.66C16.1379 40.66 16.9633 41.5692 16.9633 42.661C16.9633 43.7528 16.1379 44.662 15.0873 44.662H9.61585C8.13386 44.662 6.95828 43.3889 6.95828 41.8481C6.95828 40.3074 8.13386 39.0342 9.61585 39.0342C10.2374 39.0342 10.809 39.2606 11.2592 39.637L11.2629 39.6395Z" fill="#EB662B"/>
<path fill-rule="evenodd" clip-rule="evenodd" d="M51.6608 29.3207L51.3769 29.6183C51.073 29.5283 50.7504 29.4795 50.4177 29.4795C48.5318 29.4795 46.9785 31.0453 46.9785 33.0063C46.9785 34.9673 48.5318 36.533 50.4177 36.533H54.2484C56.4357 36.533 58.2341 34.7121 58.2341 32.4373C58.2341 30.1624 56.4357 28.3414 54.2484 28.3414C53.2629 28.3414 52.3587 28.7079 51.6608 29.3207ZM53.3567 31.1616C53.603 30.9628 53.9119 30.8427 54.2484 30.8427C55.0813 30.8427 55.7329 31.5693 55.7329 32.4373C55.7329 33.3052 55.0813 34.0318 54.2484 34.0318H50.4177C49.8862 34.0318 49.4797 33.5591 49.4797 33.0063C49.4797 32.4535 49.8862 31.9808 50.4177 31.9808C50.6115 31.9808 50.7904 32.0445 50.9367 32.1521C51.4507 32.5285 52.1648 32.4573 52.5963 31.9895L53.3529 31.1641L53.3567 31.1616Z" fill="#EB662B"/>
<path d="M15.2551 26.4885C15.9461 26.4885 16.5062 25.9283 16.5062 25.2373C16.5062 24.5463 15.9461 23.9862 15.2551 23.9862C14.5641 23.9862 14.0039 24.5463 14.0039 25.2373C14.0039 25.9283 14.5641 26.4885 15.2551 26.4885Z" fill="#EB662B"/>
</g>
</g>
<defs>
<clipPath id="clip0_2103_8875">
<rect width="60" height="60" fill="white" transform="translate(0.660156 0.129883)"/>
</clipPath>
<clipPath id="clip1_2103_8875">
<rect width="60" height="60" fill="white" transform="translate(0.660156 0.129883)"/>
</clipPath>
</defs>
</svg>
