<svg width="37" height="27" viewBox="0 0 37 27" fill="none" xmlns="http://www.w3.org/2000/svg">
<g clip-path="url(#clip0_2103_9151)">
<path d="M9.1 26.2404C6.76667 26.2404 4.66667 25.3071 2.8 23.4404C0.933334 21.5071 0 18.6737 0 14.9404C0 10.6737 1.13333 7.20709 3.4 4.54043C5.73333 1.8071 9.03333 0.44043 13.3 0.44043C14.8333 0.44043 16.0333 0.540428 16.9 0.740425V5.34043C15.9667 5.20709 14.7667 5.14043 13.3 5.14043C11.0333 5.14043 9.2 5.90709 7.8 7.44043C6.46667 8.77376 5.7 10.5404 5.5 12.7404C6.36667 11.6737 7.76667 11.1404 9.7 11.1404C11.7 11.1404 13.4 11.8404 14.8 13.2404C16.2 14.5737 16.9 16.3404 16.9 18.5404C16.9 20.8071 16.1667 22.6737 14.7 24.1404C13.2333 25.5404 11.3667 26.2404 9.1 26.2404ZM29 26.2404C26.6667 26.2404 24.5667 25.3071 22.7 23.4404C20.8333 21.5071 19.9 18.6737 19.9 14.9404C19.9 10.6737 21.0333 7.20709 23.3 4.54043C25.6333 1.8071 28.9333 0.44043 33.2 0.44043C34.7333 0.44043 35.9333 0.540428 36.8 0.740425V5.34043C35.8667 5.20709 34.6667 5.14043 33.2 5.14043C30.9333 5.14043 29.1 5.90709 27.7 7.44043C26.3667 8.77376 25.6 10.5404 25.4 12.7404C26.2667 11.6737 27.6667 11.1404 29.6 11.1404C31.6 11.1404 33.3 11.8404 34.7 13.2404C36.1 14.5737 36.8 16.3404 36.8 18.5404C36.8 20.8071 36.0667 22.6737 34.6 24.1404C33.1333 25.5404 31.2667 26.2404 29 26.2404Z" fill="#E7E6E6"/>
</g>
<defs>
<clipPath id="clip0_2103_9151">
<rect width="37" height="26" fill="white" transform="translate(0 0.44043)"/>
</clipPath>
</defs>
</svg>
