<svg width="68" height="69" viewBox="0 0 68 69" fill="none" xmlns="http://www.w3.org/2000/svg">
<g clip-path="url(#clip0_2103_8865)" filter="url(#filter0_d_2103_8865)">
<g clip-path="url(#clip1_2103_8865)">
<path fill-rule="evenodd" clip-rule="evenodd" d="M60.368 31.3116C60.368 32.1258 59.8415 32.8474 59.0661 33.0963C57.2815 33.6278 55.9908 35.2886 55.9908 37.2484C55.9908 39.2081 57.2815 40.8689 59.0573 41.4254C59.8215 41.6718 60.3405 42.3822 60.3405 43.1851C60.368 44.0393 60.368 45.1035 60.368 46.0027C60.368 47.0382 59.5276 47.8787 58.4921 47.8787C50.3217 47.8787 17.888 47.8787 9.71774 47.8787C8.68222 47.8787 7.8418 47.0382 7.8418 46.0027C7.8418 45.1035 7.8418 44.0393 7.8418 43.1851C7.8418 42.3709 8.36831 41.6493 9.1437 41.4004C10.9283 40.8689 12.219 39.2081 12.219 37.2484C12.219 35.2886 10.9283 33.6278 9.15246 33.0713C8.38833 32.8249 7.86932 32.1145 7.86932 31.3116C7.8418 30.7113 7.8418 30.0285 7.8418 29.4282C7.8418 28.614 8.36831 27.8924 9.1437 27.6436C10.9283 27.112 12.219 25.4512 12.219 23.4915C12.219 21.5317 10.9283 19.8709 9.15246 19.3144C8.38833 19.068 7.86932 18.3576 7.86932 17.5547C7.8418 16.7006 7.8418 15.6363 7.8418 14.7371C7.8418 13.7016 8.68222 12.8612 9.71774 12.8612H58.4921C59.5276 12.8612 60.368 13.7016 60.368 14.7371V17.5547C60.368 18.3689 59.8415 19.0905 59.0661 19.3394C57.2815 19.8709 55.9908 21.5317 55.9908 23.4915C55.9908 25.4512 57.2815 27.112 59.0573 27.6686C59.8215 27.9149 60.3405 28.6253 60.3405 29.4282C60.368 30.0285 60.368 30.7113 60.368 31.3116Z" fill="#FDF0EA"/>
<path fill-rule="evenodd" clip-rule="evenodd" d="M36.1644 23.7447C36.5096 23.2141 37.1006 22.8945 37.7337 22.8945C38.3669 22.8945 38.9578 23.2141 39.303 23.7447C39.6362 24.2528 39.9573 24.7457 40.1955 25.1105C40.4472 25.4949 40.8316 25.7738 41.2748 25.8944C41.6954 26.0075 42.2622 26.1613 42.8487 26.3211C43.4607 26.4854 43.9461 26.9482 44.1421 27.5512C44.3381 28.1527 44.216 28.8129 43.8195 29.3059C43.4381 29.7792 43.0688 30.2376 42.7959 30.5767C42.508 30.934 42.3617 31.3862 42.3844 31.846C42.4055 32.2802 42.4341 32.8681 42.4642 33.4742C42.4959 34.1073 42.2065 34.7118 41.6939 35.0842C41.1829 35.4565 40.5165 35.5455 39.9256 35.3193C39.3573 35.1038 38.807 34.8942 38.4015 34.7389C37.9704 34.5761 37.497 34.5761 37.0659 34.7389C36.6604 34.8942 36.1101 35.1038 35.5418 35.3193C34.9509 35.5455 34.2846 35.4565 33.7735 35.0842C33.261 34.7118 32.9715 34.1073 33.0032 33.4742C33.0333 32.8681 33.062 32.2802 33.0831 31.846C33.1057 31.3862 32.9595 30.934 32.6715 30.5767C32.3987 30.2376 32.0293 29.7792 31.6479 29.3059C31.2515 28.8129 31.1293 28.1527 31.3253 27.5512C31.5213 26.9482 32.0067 26.4854 32.6188 26.3211C33.2052 26.1613 33.772 26.0075 34.1926 25.8944C34.6358 25.7738 35.0202 25.4949 35.272 25.1105C35.5102 24.7457 35.8312 24.2528 36.1644 23.7447Z" fill="white"/>
<path fill-rule="evenodd" clip-rule="evenodd" d="M26.6018 46.6281C27.2922 46.6281 27.8524 47.1883 27.8524 47.8787C27.8524 48.569 27.2922 49.1293 26.6018 49.1293C25.9115 49.1293 25.3512 48.569 25.3512 47.8787C25.3512 47.1883 25.9115 46.6281 26.6018 46.6281ZM56.6168 14.1118H58.4927C58.8379 14.1118 59.1181 14.3919 59.1181 14.7371V17.5548C59.1181 17.8174 58.953 18.0513 58.7079 18.1413C56.4054 18.8316 54.7409 20.9677 54.7409 23.4915C54.7409 26.0102 56.4005 28.1451 58.6841 28.8617C58.923 28.9392 59.0905 29.1693 59.0905 29.4282C59.0905 29.4482 59.0905 29.467 59.0918 29.4857C59.1181 30.0673 59.1181 30.7301 59.1181 31.3116C59.1181 31.5743 58.953 31.8081 58.7079 31.8982C56.4054 32.5885 54.7409 34.7246 54.7409 37.2484C54.7409 39.7671 56.4005 41.9019 58.6841 42.6186C58.923 42.6961 59.0905 42.9262 59.0905 43.1851V43.2264C59.1181 44.068 59.1181 45.116 59.1181 46.0027C59.1181 46.3479 58.8379 46.6281 58.4927 46.6281H30.3537C29.6633 46.6281 29.1031 47.1883 29.1031 47.8787C29.1031 48.569 29.6633 49.1293 30.3537 49.1293H58.4927C60.2199 49.1293 61.6193 47.7299 61.6193 46.0027C61.6193 45.0948 61.6193 44.0205 61.5918 43.1551C61.5818 41.8256 60.7151 40.6451 59.4407 40.2349C59.4382 40.2349 59.4357 40.2336 59.4332 40.2323C58.1638 39.8346 57.2421 38.6478 57.2421 37.2484C57.2421 35.8564 58.1551 34.6733 59.4232 34.2956C59.432 34.2931 59.4407 34.2906 59.4495 34.2869C60.7426 33.8717 61.6193 32.6698 61.6193 31.3116C61.6193 30.7026 61.6193 30.0097 61.5918 29.3982C61.578 28.065 60.7126 26.8869 59.4407 26.478C59.4382 26.478 59.4357 26.4767 59.4332 26.4755C58.1638 26.0778 57.2421 24.8909 57.2421 23.4915C57.2421 22.0995 58.1551 20.9165 59.4232 20.5388C59.432 20.5363 59.4407 20.5337 59.4495 20.53C60.7426 20.1148 61.6193 18.9129 61.6193 17.5548V14.7371C61.6193 13.01 60.2199 11.6106 58.4927 11.6106H56.6168C55.9265 11.6106 55.3662 12.1708 55.3662 12.8612C55.3662 13.5515 55.9265 14.1118 56.6168 14.1118ZM21.5993 46.6281V43.4915C21.5993 42.8011 21.039 42.2409 20.3487 42.2409C19.6583 42.2409 19.0981 42.8011 19.0981 43.4915V46.6281H9.71836C9.37319 46.6281 9.09305 46.3479 9.09305 46.0027V43.1851C9.09305 42.9225 9.25813 42.6886 9.50326 42.5986C11.8057 41.9082 13.4702 39.7721 13.4702 37.2484C13.4702 34.7296 11.8107 32.5948 9.52702 31.8782C9.28815 31.8006 9.12057 31.5705 9.12057 31.3116C9.12057 31.2916 9.12056 31.2729 9.11931 31.2541C9.09304 30.6726 9.09305 30.0098 9.09305 29.4282C9.09305 29.1656 9.25813 28.9317 9.50326 28.8417C11.8057 28.1513 13.4702 26.0153 13.4702 23.4915C13.4702 20.9727 11.8107 18.8379 9.52702 18.1213C9.28815 18.0438 9.12057 17.8136 9.12057 17.5548C9.12057 17.541 9.12057 17.5273 9.12057 17.5135C9.09305 16.6718 9.09305 15.6238 9.09305 14.7371C9.09305 14.3919 9.37319 14.1118 9.71836 14.1118H19.0981V18.479C19.0981 19.1693 19.6583 19.7296 20.3487 19.7296C21.039 19.7296 21.5993 19.1693 21.5993 18.479V14.1118H52.8649C53.5553 14.1118 54.1156 13.5515 54.1156 12.8612C54.1156 12.1708 53.5553 11.6106 52.8649 11.6106C52.8649 11.6106 16.5468 11.6106 9.71836 11.6106C7.99125 11.6106 6.5918 13.01 6.5918 14.7371C6.5918 15.6451 6.5918 16.7194 6.61932 17.5848C6.62932 18.9142 7.49601 20.0948 8.77039 20.505C8.77289 20.505 8.77539 20.5063 8.77789 20.5075C10.0473 20.9052 10.969 22.092 10.969 23.4915C10.969 24.8834 10.056 26.0665 8.78789 26.4442C8.77914 26.4467 8.77039 26.4492 8.76163 26.453C7.46849 26.8682 6.5918 28.07 6.5918 29.4282C6.5918 30.0373 6.5918 30.7301 6.61932 31.3417C6.63307 32.6748 7.49851 33.8529 8.77039 34.2619C8.77289 34.2619 8.77539 34.2631 8.77789 34.2644C10.0473 34.6621 10.969 35.8489 10.969 37.2484C10.969 38.6403 10.056 39.8234 8.78789 40.2011C8.77914 40.2036 8.77039 40.2061 8.76163 40.2099C7.46849 40.6251 6.5918 41.8269 6.5918 43.1851V46.0027C6.5918 47.7299 7.99125 49.1293 9.71836 49.1293H22.8499C23.5403 49.1293 24.1006 48.569 24.1006 47.8787C24.1006 47.1883 23.5403 46.6281 22.8499 46.6281H21.5993ZM19.0981 33.4865V38.489C19.0981 39.1793 19.6583 39.7396 20.3487 39.7396C21.039 39.7396 21.5993 39.1793 21.5993 38.489V33.4865C21.5993 32.7961 21.039 32.2359 20.3487 32.2359C19.6583 32.2359 19.0981 32.7961 19.0981 33.4865ZM19.0981 23.4815V28.484C19.0981 29.1743 19.6583 29.7346 20.3487 29.7346C21.039 29.7346 21.5993 29.1743 21.5993 28.484V23.4815C21.5993 22.7911 21.039 22.2309 20.3487 22.2309C19.6583 22.2309 19.0981 22.7911 19.0981 23.4815Z" fill="#EB662B"/>
<path fill-rule="evenodd" clip-rule="evenodd" d="M35.2226 23.2975L34.3297 24.664C34.2452 24.7922 34.117 24.8857 33.9692 24.9249L32.3946 25.3518C31.375 25.6278 30.5651 26.4 30.2378 27.4045C29.912 28.4075 30.1141 29.5085 30.7762 30.3305L31.8004 31.602C31.8969 31.7211 31.9452 31.8719 31.9376 32.0243L31.8562 33.6547C31.8049 34.7089 32.2875 35.7195 33.1412 36.3394C33.9964 36.9593 35.1049 37.1071 36.0913 36.7315L37.6162 36.1508C37.761 36.0965 37.9178 36.0965 38.0611 36.1508L39.5875 36.7315C40.5739 37.1071 41.6824 36.9593 42.5376 36.3394C43.3913 35.7195 43.8739 34.7089 43.8226 33.6547L43.7412 32.0243C43.7336 31.8719 43.7819 31.7211 43.8784 31.602L44.9025 30.3305C45.5647 29.5085 45.7668 28.4075 45.441 27.4045C45.1137 26.4 44.3038 25.6278 43.2842 25.3518L41.7096 24.9249C41.5618 24.8857 41.4336 24.7922 41.3491 24.664L40.4562 23.2975C39.8801 22.4137 38.8952 21.8812 37.8394 21.8812C36.7836 21.8812 35.7987 22.4137 35.2226 23.2975ZM37.316 24.6655C37.4322 24.489 37.6282 24.382 37.8394 24.382C38.0506 24.382 38.2466 24.489 38.3628 24.6655L39.2556 26.032C39.6749 26.6745 40.316 27.139 41.055 27.3396L42.6311 27.7665C42.8347 27.8223 42.9961 27.9761 43.061 28.1767C43.1273 28.3773 43.0866 28.5975 42.9539 28.7619L41.9298 30.0334C41.4502 30.6306 41.2043 31.3833 41.2435 32.1495L41.3235 33.7784C41.334 33.9895 41.2375 34.1916 41.0671 34.3153C40.8966 34.4405 40.6749 34.4692 40.4773 34.3937L38.9525 33.8131C38.2346 33.5416 37.4442 33.5416 36.7263 33.8131L35.2015 34.3937C35.0039 34.4692 34.7822 34.4405 34.6117 34.3153C34.4413 34.1916 34.3448 33.9895 34.3553 33.7784L34.4353 32.1495C34.4745 31.3833 34.2286 30.6306 33.749 30.0334L32.7249 28.7619C32.5922 28.5975 32.5515 28.3773 32.6178 28.1767C32.6827 27.9761 32.8441 27.8223 33.0477 27.7665L34.6238 27.3396C35.3628 27.139 36.0039 26.6745 36.4232 26.032L37.316 24.6655Z" fill="#EB662B"/>
</g>
</g>
<defs>
<filter id="filter0_d_2103_8865" x="0" y="0.129883" width="68" height="68" filterUnits="userSpaceOnUse" color-interpolation-filters="sRGB">
<feFlood flood-opacity="0" result="BackgroundImageFix"/>
<feColorMatrix in="SourceAlpha" type="matrix" values="0 0 0 0 0 0 0 0 0 0 0 0 0 0 0 0 0 0 127 0" result="hardAlpha"/>
<feOffset dy="4"/>
<feGaussianBlur stdDeviation="2"/>
<feComposite in2="hardAlpha" operator="out"/>
<feColorMatrix type="matrix" values="0 0 0 0 0 0 0 0 0 0 0 0 0 0 0 0 0 0 0.25 0"/>
<feBlend mode="normal" in2="BackgroundImageFix" result="effect1_dropShadow_2103_8865"/>
<feBlend mode="normal" in="SourceGraphic" in2="effect1_dropShadow_2103_8865" result="shape"/>
</filter>
<clipPath id="clip0_2103_8865">
<rect width="60" height="60" fill="white" transform="translate(4 0.129883)"/>
</clipPath>
<clipPath id="clip1_2103_8865">
<rect width="60" height="60" fill="white" transform="translate(4 0.129883)"/>
</clipPath>
</defs>
</svg>
